<?xml version="1.0" encoding="utf-8"?>
<!-- Generator: Adobe Illustrator 16.0.0, SVG Export Plug-In . SVG Version: 6.00 Build 0)  -->
<!DOCTYPE svg PUBLIC "-//W3C//DTD SVG 1.1//EN" "http://www.w3.org/Graphics/SVG/1.1/DTD/svg11.dtd">
<svg version="1.1" id="圖層_1" xmlns="http://www.w3.org/2000/svg" xmlns:xlink="http://www.w3.org/1999/xlink" x="0px" y="0px"
	 width="252.531px" height="56.5px" viewBox="0 0 252.531 56.5" enable-background="new 0 0 252.531 56.5" xml:space="preserve">
<g>
	<g>
		<linearGradient id="SVGID_1_" gradientUnits="userSpaceOnUse" x1="-6.2334" y1="146.4854" x2="40.5298" y2="146.6802">
			<stop  offset="0" style="stop-color:#407CCA"/>
			<stop  offset="0.4158" style="stop-color:#407CCA"/>
			<stop  offset="1" style="stop-color:#8EBDE6"/>
		</linearGradient>
		<polygon fill="url(#SVGID_1_)" points="22.099,131.937 20.537,131.937 13.791,141.249 24.492,161.281 37.808,161.281 		"/>
		<linearGradient id="SVGID_2_" gradientUnits="userSpaceOnUse" x1="-6.231" y1="146.0928" x2="40.5311" y2="146.2876">
			<stop  offset="0" style="stop-color:#407CCA"/>
			<stop  offset="0.4158" style="stop-color:#407CCA"/>
			<stop  offset="1" style="stop-color:#8EBDE6"/>
		</linearGradient>
		<polygon fill="url(#SVGID_2_)" points="10.617,131.937 8.682,131.937 -12.623,160.293 1.074,160.293 15.631,140.939 
			15.161,140.09 		"/>
		<linearGradient id="SVGID_3_" gradientUnits="userSpaceOnUse" x1="-6.1904" y1="136.1602" x2="40.5744" y2="136.355">
			<stop  offset="0" style="stop-color:#407CCA"/>
			<stop  offset="0.4158" style="stop-color:#407CCA"/>
			<stop  offset="1" style="stop-color:#8EBDE6"/>
		</linearGradient>
		<polygon fill="url(#SVGID_3_)" points="8.575,131.27 13.368,140.314 13.867,141.249 21.009,131.27 		"/>
	</g>
	<path fill-rule="evenodd" clip-rule="evenodd" fill="#666464" stroke="#666464" stroke-width="0.15" stroke-miterlimit="10" d="
		M110.129,129.145v-5.213h-5.362c0.806-1.872,1.538-3.799,2.192-5.76c0.617-1.994,1.254-3.963,1.833-5.955h-6.341
		c-0.445,2.056-1.008,4.056-1.653,5.994c-0.655,1.955-1.398,3.849-2.219,5.721H87.84v5.213H110.129L110.129,129.145z
		 M97.464,121.768h-6.195c-0.566-1.531-1.057-3.088-1.467-4.683c-0.436-1.61-0.817-3.221-1.13-4.868h5.875
		c0.378,1.647,0.78,3.258,1.258,4.868C96.273,118.68,96.831,120.236,97.464,121.768L97.464,121.768z M118.267,162.707
		c0,0.898-0.2,1.708-0.563,2.475c-0.407,0.746-0.92,1.398-1.608,1.916c-0.648,0.514-1.381,0.938-2.201,1.207
		c-0.853,0.285-1.696,0.433-2.569,0.433h-5.821l-2.536-5.29h7.161c0.45-0.01,0.849-0.18,1.168-0.481
		c0.305-0.341,0.467-0.679,0.467-1.09v-49.945c0-0.578-0.186-1.067-0.551-1.431c-0.402-0.381-0.919-0.57-1.598-0.594H88.066
		c-0.323,0-0.634,0.107-0.896,0.28c-0.277,0.188-0.49,0.414-0.664,0.677c-0.152,0.276-0.244,0.557-0.244,0.836v57.038h-6.329
		v-58.603c0.01-0.771,0.168-1.465,0.511-2.109c0.323-0.637,0.731-1.215,1.279-1.693c0.569-0.527,1.221-0.941,1.951-1.26
		c0.695-0.289,1.425-0.451,2.143-0.451h25.726c1.065,0,2.016,0.171,2.871,0.527c0.895,0.343,1.59,0.846,2.198,1.476
		c0.515,0.555,0.947,1.249,1.212,2.04c0.28,0.801,0.441,1.675,0.441,2.676V162.707L118.267,162.707z M110.275,142.123v-5.213h-7.145
		c-0.277-0.629-0.542-1.303-0.789-2.035c-0.237-0.72-0.429-1.455-0.673-2.184c-0.188-0.75-0.395-1.455-0.539-2.131h-6.583
		c0.147,0.676,0.32,1.395,0.521,2.146c0.183,0.745,0.371,1.484,0.582,2.213c0.21,0.719,0.405,1.369,0.609,1.99h-8.27v5.289h3.646
		v9.764c0,0.932,0.169,1.797,0.478,2.541c0.334,0.771,0.758,1.414,1.3,1.935c0.526,0.483,1.135,0.868,1.796,1.144
		c0.651,0.274,1.349,0.425,2.1,0.425h10.373l2.086-5.216H99.169c-0.314-0.006-0.59-0.18-0.85-0.463
		c-0.28-0.307-0.399-0.645-0.414-1.041v-9.164H110.275L110.275,142.123z M78.972,145.107c-0.682-2.217-1.267-4.437-1.756-6.699
		c-0.481-2.276-0.905-4.557-1.236-6.88h-6.043c0.103,0.867,0.234,1.796,0.386,2.822c0.137,0.996,0.305,1.999,0.469,2.943
		c0.137,0.95,0.29,1.814,0.417,2.516h-9.755l17.305-24.243h-7.7l-3.438,4.782h-6.244l12.44-17.146h-7.843L55.17,118.488
		c-0.539,0.825-0.874,1.656-0.95,2.493c-0.089,0.832,0.015,1.59,0.35,2.284c0.308,0.639,0.801,1.151,1.494,1.543
		c0.704,0.405,1.575,0.595,2.616,0.615h5.434l-9.165,12.75c-0.56,0.826-0.836,1.654-0.907,2.441
		c-0.061,0.799,0.088,1.535,0.383,2.174c0.311,0.616,0.737,1.112,1.267,1.496c0.551,0.384,1.118,0.584,1.721,0.584h12.154
		l2.097-3.803c0.064,0.631,0.21,1.282,0.393,1.998c0.174,0.715,0.366,1.396,0.563,2.043H78.972L78.972,145.107z M79.188,163.9
		c-0.548-2.512-0.999-5.1-1.343-7.794c-0.329-2.7-0.599-5.37-0.822-8.016h-5.069c0.189,2.724,0.436,5.396,0.783,8.016
		c0.335,2.624,0.761,5.222,1.233,7.794H79.188L79.188,163.9z M71.729,168.737c-0.704-3.263-1.224-6.63-1.574-10.098
		c-0.365-3.48-0.544-7.007-0.587-10.549h-5.736c0.033,3.54,0.197,7.06,0.486,10.485c0.32,3.463,0.747,6.852,1.31,10.161H71.729
		L71.729,168.737z M61.652,148.091h-5.657c-0.085,2.354-0.219,4.718-0.38,7.06c-0.159,2.342-0.383,4.655-0.712,6.947
		c-0.332,2.254-0.771,4.482-1.377,6.64h6.193c0.59-3.324,1.068-6.718,1.391-10.183C61.454,155.095,61.621,151.601,61.652,148.091
		L61.652,148.091z M194.224,167.023c-0.782-1.01-1.563-2.146-2.353-3.409c-0.765-1.26-1.502-2.591-2.195-3.971
		c-0.73-1.378-1.368-2.782-1.934-4.204c-0.566-1.406-1.044-2.749-1.415-4.072h-6.717c0.435,1.766,0.971,3.533,1.677,5.349
		c0.661,1.811,1.422,3.604,2.269,5.345c0.829,1.76,1.702,3.408,2.618,4.963H194.224L194.224,167.023z M194.371,139.81h-9.031
		c-0.265-0.266-0.565-0.585-0.934-0.993c-0.317-0.387-0.659-0.846-0.966-1.266c-0.35-0.445-0.609-0.865-0.853-1.24h-20.889
		c-0.414,0.6-0.916,1.219-1.458,1.863c-0.543,0.621-1.103,1.179-1.602,1.636h-8.415c0.174,0.806,0.347,1.702,0.526,2.673
		c0.173,0.98,0.28,1.979,0.372,2.972c0.085,0.989,0.135,1.931,0.085,2.782c-0.127,1.193-0.344,2.237-0.706,3.152
		c-0.337,0.893-0.85,1.661-1.458,2.285c-0.676,0.676-1.517,1.184-2.489,1.514c-0.988,0.334-2.098,0.502-3.338,0.502h-3.733
		l-2.457-5.216h5.008c0.436,0,0.85-0.091,1.248-0.249c0.391-0.162,0.67-0.398,0.912-0.734c0.242-0.352,0.363-0.758,0.363-1.254
		c0.089-2.521-0.102-4.914-0.557-7.17c-0.484-2.226-1.166-4.356-2.064-6.406c-0.9-2.051-1.951-4.033-3.202-5.957
		c1.007-2.725,1.917-5.482,2.666-8.306c0.763-2.808,1.374-5.685,1.815-8.631c0.036-0.312-0.064-0.565-0.241-0.78
		c-0.191-0.209-0.446-0.322-0.812-0.331h-4.62c-0.374,0.009-0.743,0.144-1.028,0.442c-0.287,0.276-0.436,0.629-0.463,1.043v56.68
		h-6.335v-57.793c0.011-0.762,0.201-1.495,0.526-2.229c0.338-0.73,0.813-1.372,1.4-1.937c0.488-0.469,1.082-0.828,1.727-1.08
		c0.637-0.29,1.339-0.42,2.086-0.42h9.772c0.914,0,1.653,0.173,2.299,0.486c0.657,0.345,1.175,0.762,1.595,1.307
		c0.437,0.596,0.753,1.297,0.93,2.115c0.173,0.801,0.173,1.639,0.021,2.497c-0.151,0.858-0.402,1.862-0.663,2.993
		c-0.287,1.107-0.609,2.295-0.974,3.553c-0.354,1.26-0.738,2.475-1.112,3.705c-0.405,1.248-0.8,2.396-1.169,3.467
		c-0.394,1.066-0.728,2.004-1.07,2.773c1.082,1.721,2.018,3.48,2.814,5.31c0.826,1.804,1.511,3.663,2.11,5.578
		c1.616-1.065,3.081-2.28,4.396-3.668c1.304-1.383,2.56-2.851,3.713-4.399h-4.46c-0.679-1.069-1.269-2.207-1.769-3.377
		c-0.511-1.195-0.929-2.396-1.223-3.626h6.205c0.271,0.901,0.607,1.882,1.03,2.847c0.427,0.983,0.894,1.873,1.426,2.683
		c0.301-0.427,0.658-0.927,1.081-1.544c0.374-0.618,0.788-1.26,1.181-1.924c0.383-0.673,0.743-1.266,1.017-1.839h-2.396
		c-0.439-0.858-0.859-1.702-1.263-2.54c-0.403-0.846-0.777-1.713-1.124-2.597c-0.239,0.566-0.572,1.133-0.92,1.739
		c-0.369,0.596-0.746,1.159-1.165,1.689h-7.444c1.553-2.049,2.878-4.077,4.014-6.138c1.125-2.062,2.111-4.149,2.93-6.266
		c0.859-2.119,1.624-4.306,2.309-6.54h6.481c-0.121,0.676-0.304,1.358-0.511,2.035c-0.222,0.65-0.442,1.271-0.686,1.847h7.378
		c0.586,0,1.129,0.055,1.715,0.159c0.556,0.133,1.091,0.322,1.563,0.572c0.539,0.225,0.992,0.538,1.396,0.952
		c0.401,0.421,0.733,0.923,1.007,1.511c0.708,1.684,1.409,3.33,2.113,4.922c0.726,1.596,1.467,3.133,2.198,4.629
		c1.028-1.298,1.961-2.602,2.746-3.934c0.813-1.307,1.546-2.711,2.262-4.199c0.131-0.377,0.131-0.721-0.027-1.031
		c-0.156-0.268-0.407-0.445-0.807-0.454h-6.333v-4.774h9.761c0.832,0.025,1.541,0.174,2.169,0.512
		c0.632,0.323,1.135,0.786,1.493,1.357c0.406,0.607,0.649,1.289,0.728,2.049c0.053,0.754-0.057,1.511-0.366,2.275
		c-0.421,1.025-0.97,2.162-1.611,3.367c-0.616,1.215-1.337,2.453-2.083,3.724c-0.774,1.254-1.553,2.499-2.387,3.674
		c-0.815,1.194-1.613,2.271-2.411,3.245c1.383,2.443,2.993,4.805,4.81,7.119C189.986,135.517,192.063,137.718,194.371,139.81
		L194.371,139.81z M191.984,148.012h-15.884v14.768c0,0.826-0.162,1.621-0.521,2.402c-0.332,0.746-0.812,1.428-1.411,1.991
		c-0.534,0.496-1.126,0.901-1.808,1.19c-0.646,0.293-1.349,0.441-2.076,0.457h-5.663l-2.243-5.069h5.754
		c0.456-0.021,0.804-0.185,1.062-0.499c0.284-0.344,0.42-0.761,0.42-1.285v-13.955h-16.635v-5.146h39.005V148.012L191.984,148.012z
		 M165.662,151.367h-7.135c-0.806,1.893-1.754,3.753-2.837,5.576c-1.1,1.809-2.388,3.574-3.858,5.254
		c-1.467,1.703-3.16,3.322-5.105,4.826h9.258c1.452-1.723,2.796-3.409,3.974-5.057c1.133-1.639,2.213-3.318,3.143-5.045
		C164.028,155.193,164.896,153.349,165.662,151.367L165.662,151.367z M179.221,131.236c-1.238-2.117-2.427-4.29-3.55-6.473
		c-1.108-2.211-2.184-4.415-3.225-6.649c-0.944,2.188-1.963,4.384-3.108,6.558c-1.136,2.172-2.374,4.369-3.676,6.564H179.221
		L179.221,131.236z M167.673,113.191c0.047-0.197,0.015-0.344-0.092-0.472c-0.08-0.134-0.186-0.194-0.358-0.194h-6.247
		c-0.131,0.338-0.271,0.754-0.451,1.181c-0.164,0.417-0.341,0.849-0.524,1.267c-0.173,0.423-0.359,0.794-0.515,1.139h3.486
		c0.161,0.703,0.389,1.461,0.67,2.246c0.293,0.804,0.593,1.52,0.904,2.217c0.679-1.297,1.279-2.572,1.817-3.803
		C166.906,115.539,167.335,114.339,167.673,113.191L167.673,113.191z M264.898,139.443v-3.287c0-1.045-0.119-1.943-0.371-2.704
		c-0.271-0.761-0.646-1.399-1.191-1.924c-0.553-0.542-1.248-0.968-2.087-1.251c-0.853-0.269-1.775-0.42-2.839-0.447v-11.798
		c0-0.886-0.112-1.724-0.365-2.493c-0.263-0.771-0.624-1.446-1.101-2.047c-0.481-0.571-1.048-1.016-1.739-1.314
		c-0.701-0.32-1.525-0.479-2.45-0.479h-10.813c0.189-0.398,0.396-0.877,0.612-1.439c0.216-0.575,0.365-1.115,0.512-1.617h20.344
		v-4.247h-45.33v4.247h18.338c-0.05,0.26-0.143,0.582-0.277,0.959c-0.118,0.412-0.259,0.782-0.415,1.17
		c-0.143,0.383-0.308,0.684-0.435,0.928h-6.472c-1.012,0-1.923,0.129-2.729,0.375c-0.81,0.259-1.501,0.63-2.04,1.117
		c-0.606,0.515-1.059,1.176-1.375,1.963c-0.334,0.807-0.495,1.739-0.495,2.808v12.142c-0.89,0.052-1.713,0.167-2.414,0.375
		c-0.712,0.219-1.354,0.533-1.915,0.971c-0.668,0.492-1.184,1.154-1.546,1.971c-0.359,0.836-0.53,1.838-0.53,3.031v3.292h6.405
		v-3.433c0-0.353,0.058-0.66,0.172-0.964c0.129-0.293,0.288-0.561,0.555-0.731c0.216-0.213,0.537-0.328,0.918-0.328h33.535
		c0.369,0,0.616,0.127,0.859,0.35c0.233,0.229,0.355,0.506,0.355,0.852v3.955H264.898L264.898,139.443z M262.595,146.443h-7.674
		c-1.204-1.516-2.265-3.121-3.211-4.746c-0.936-1.669-1.707-3.367-2.332-5.17h6.586c0.693,1.775,1.63,3.496,2.776,5.124
		C259.901,143.301,261.213,144.869,262.595,146.443L262.595,146.443z M248.134,140.266h-6.646c-0.259-0.496-0.477-1.02-0.711-1.586
		c-0.225-0.541-0.44-1.102-0.623-1.656c-0.214-0.547-0.383-1.025-0.521-1.465h6.636c0.096,0.439,0.229,0.918,0.417,1.465
		c0.167,0.555,0.4,1.115,0.631,1.656C247.563,139.246,247.821,139.77,248.134,140.266L248.134,140.266z M250.832,141.895
		l-1.97,4.029H236.57c-0.601,0-1.179-0.126-1.701-0.357c-0.531-0.246-1.033-0.572-1.437-0.984c-0.406-0.447-0.729-0.979-0.982-1.536
		c-0.226-0.572-0.335-1.191-0.356-1.81v-5.305h6.192v4.097c0.01,0.572,0.174,1.026,0.53,1.364c0.319,0.338,0.728,0.502,1.181,0.502
		H250.832L250.832,141.895z M230.897,136.969c-0.539,1.428-1.093,2.756-1.709,3.973c-0.607,1.221-1.205,2.305-1.796,3.252
		c-0.575,0.956-1.089,1.715-1.564,2.328h-6.938c1.241-1.449,2.328-2.971,3.272-4.58c0.935-1.596,1.679-3.262,2.262-4.973H230.897
		L230.897,136.969z M266.536,168.737c-1.445-0.438-2.979-0.942-4.69-1.5c-1.696-0.551-3.436-1.157-5.225-1.784
		c-1.78-0.643-3.591-1.315-5.355-1.982c-1.774-0.706-3.465-1.41-5.072-2.118c1.048-0.663,2.107-1.362,3.185-2.077
		c1.068-0.721,2.116-1.461,3.124-2.24c0.986-0.771,1.933-1.568,2.786-2.387c0.563-0.576,0.892-1.188,1.04-1.863
		c0.122-0.683,0.04-1.34-0.229-1.93c-0.249-0.649-0.69-1.206-1.305-1.596c-0.576-0.43-1.321-0.637-2.187-0.652h-16.715
		c0.208-0.201,0.404-0.465,0.647-0.785c0.227-0.328,0.41-0.617,0.471-0.858h-7.823c-1.329,1.644-2.751,3.181-4.285,4.637
		c-1.507,1.449-3.093,2.815-4.746,4.083c-1.614,1.277-3.262,2.473-4.92,3.592h9.7c0.209-0.151,0.459-0.361,0.778-0.608
		c0.314-0.253,0.609-0.527,0.965-0.805c0.326-0.265,0.597-0.534,0.865-0.755c0.545,0.512,1.179,1.049,1.902,1.629
		c0.746,0.582,1.492,1.103,2.219,1.617c0.741,0.506,1.39,0.922,1.922,1.236c-1.616,0.834-3.466,1.689-5.469,2.515
		c-2.025,0.876-4.112,1.696-6.271,2.505c-2.146,0.789-4.247,1.557-6.303,2.285h16.106c0.532-0.252,1.162-0.549,1.872-0.899
		c0.715-0.35,1.495-0.708,2.252-1.085c0.782-0.389,1.521-0.76,2.222-1.109c0.708-0.348,1.342-0.677,1.859-0.936
		c1.345,0.722,2.768,1.392,4.271,2.074c1.489,0.672,2.957,1.27,4.359,1.798H266.536L266.536,168.737z M216.437,103.799
		c-0.104,1.474-0.279,3.072-0.539,4.805c-0.273,1.723-0.6,3.516-0.975,5.353c-0.389,1.845-0.825,3.681-1.275,5.501
		c-0.459,1.851-0.899,3.592-1.395,5.291v44.295h-6.491v-32.662h-5.36c2.649-4.972,4.71-10.186,6.248-15.651
		c1.542-5.459,2.608-11.097,3.227-16.931H216.437L216.437,103.799z M251.78,117.746h-22.961v-0.454c0-0.386,0.109-0.716,0.321-0.989
		c0.221-0.283,0.527-0.424,0.94-0.436h20.356c0.395,0.012,0.684,0.152,0.959,0.436c0.243,0.273,0.368,0.604,0.384,0.989V117.746
		L251.78,117.746z M251.78,123.771h-22.961v-2.158h22.961V123.771L251.78,123.771z M251.78,130.053h-22.961v-2.477h22.961V130.053
		L251.78,130.053z M247.978,153.08c-1.319,0.992-2.606,1.918-3.939,2.746c-1.317,0.853-2.666,1.666-4.041,2.476
		c-0.435-0.214-0.982-0.487-1.598-0.868c-0.606-0.381-1.254-0.801-1.921-1.245c-0.693-0.45-1.278-0.883-1.855-1.317h-4.542
		c0.208-0.195,0.425-0.414,0.672-0.652c0.266-0.253,0.501-0.459,0.724-0.675c0.2-0.195,0.377-0.351,0.478-0.464H247.978
		L247.978,153.08z M338.782,137.727h-2.895c-0.498,0-0.893-0.14-1.188-0.398c-0.307-0.277-0.438-0.686-0.46-1.245v-18.188
		c0-1.123-0.108-2.128-0.358-3.017c-0.251-0.892-0.654-1.653-1.203-2.274c-0.557-0.673-1.267-1.184-2.146-1.506
		c-0.887-0.351-1.911-0.521-3.148-0.521h-6.335v-6.93h-6.412v6.93h-6.202v4.777h6.202c0.026,0.514,0.026,1.11,0.026,1.731
		c0,0.606-0.026,1.239-0.069,1.864c-0.03,0.623-0.062,1.217-0.121,1.78c-0.296-0.335-0.583-0.697-0.864-1.057
		c-0.271-0.371-0.5-0.736-0.686-1.114h-5.983c1.063,1.744,2.158,3.459,3.307,5.154c1.166,1.681,2.356,3.347,3.616,4.99
		c-0.376,2.566-1.141,5.012-2.204,7.313c-1.057,2.314-2.478,4.463-4.257,6.467h8.358c0.448-0.831,0.913-1.685,1.318-2.606
		c0.424-0.909,0.813-1.839,1.174-2.749c0.354-0.91,0.701-1.789,1.012-2.611c0.323,0.35,0.658,0.684,1.017,1.001
		c0.337,0.319,0.683,0.563,0.979,0.706h6.424v1.355c0.015,0.664,0.137,1.299,0.387,1.891c0.271,0.555,0.605,1.05,1.013,1.461
		c0.519,0.523,1.032,0.914,1.639,1.16c0.584,0.27,1.123,0.393,1.644,0.393h4.937L338.782,137.727L338.782,137.727z M308.002,123.399
		l-2.018,4.555h-7.094c-0.756-0.003-1.469-0.128-2.116-0.344c-0.667-0.226-1.221-0.509-1.693-0.844v3.212h9.335v4.234h-9.335v3.59
		h11.115v4.467h-31.096v-4.467h13.131v-3.59h-11.188v-4.234h11.188v-4.484h5.656c-0.091-0.319-0.203-0.703-0.301-1.119
		c-0.088-0.434-0.146-0.812-0.146-1.109v-3.818h-4.685c-0.565,1.627-1.335,3.143-2.35,4.561c-0.99,1.441-2.207,2.717-3.619,3.801
		h-9.545c1.155-0.601,2.275-1.325,3.453-2.144c1.145-0.854,2.192-1.77,3.123-2.819c0.947-1.042,1.65-2.18,2.144-3.398h-7.537v-4.244
		h13.647v-3.66h-11.472v-4.328h11.472v-3.568h6.637v3.568h9.405v4.328h-9.405v3.66h11.79v4.244h-6.629v2.533
		c0,0.5,0.101,0.858,0.331,1.068c0.227,0.244,0.56,0.351,0.987,0.351H308.002L308.002,123.399z M334.771,162.404v-8.73
		c0-0.792-0.169-1.571-0.482-2.328c-0.304-0.768-0.771-1.457-1.315-2.059c-0.567-0.664-1.252-1.145-2.033-1.525
		c-0.795-0.375-1.633-0.557-2.601-0.557h-22.742c0.088-0.479,0.146-1.023,0.183-1.67c0.036-0.633,0.049-1.275,0.049-1.933h-6.705
		c0,0.493-0.039,1.09-0.094,1.751c-0.057,0.636-0.14,1.261-0.219,1.852h-23.931v4.834h23.104c-0.931,2.155-2.191,4.082-3.805,5.775
		c-1.614,1.674-3.489,3.191-5.597,4.504c-2.114,1.296-4.408,2.492-6.856,3.519c-2.462,1.05-4.977,1.991-7.589,2.837h14.403
		c1.742-0.679,3.492-1.543,5.255-2.621c1.736-1.094,3.358-2.354,4.898-3.793c1.55-1.443,2.868-3.02,3.957-4.758
		c1.098-1.709,1.895-3.539,2.363-5.463h20.646c0.678,0,1.191,0.195,1.542,0.588c0.365,0.39,0.558,0.859,0.558,1.434v7.669
		c-0.031,0.64-0.244,1.142-0.637,1.522c-0.417,0.362-0.932,0.557-1.538,0.568h-10.95l2.223,4.854h12.149
		c0.816-0.018,1.569-0.215,2.306-0.588c0.754-0.371,1.371-0.895,1.96-1.586c0.459-0.555,0.825-1.176,1.077-1.869
		C334.626,163.938,334.771,163.193,334.771,162.404L334.771,162.404z M327.683,134.07c-0.899-0.709-1.8-1.461-2.658-2.238
		c-0.871-0.793-1.682-1.579-2.415-2.355c-0.727-0.799-1.359-1.508-1.861-2.192c0.118-1.327,0.215-2.697,0.301-4.095
		c0.063-1.386,0.111-2.756,0.133-4.098c0.031-1.343,0.031-2.582,0-3.738h4.563c0.563,0.008,1.021,0.207,1.38,0.578
		c0.362,0.371,0.527,0.825,0.558,1.36V134.07z"/>
	<linearGradient id="SVGID_4_" gradientUnits="userSpaceOnUse" x1="-44.3438" y1="132.8457" x2="4.7061" y2="132.8457">
		<stop  offset="0" style="stop-color:#407CCA"/>
		<stop  offset="0.4158" style="stop-color:#407CCA"/>
		<stop  offset="1" style="stop-color:#8EBDE6"/>
	</linearGradient>
	<path fill="url(#SVGID_4_)" d="M-42.619,104.41c2.858,0.056,4.796,0.086,5.81,0.086c1.259,0,3.133-0.03,5.625-0.086l-1.75,33.043
		c-0.026,0.383-0.035,0.791-0.035,1.229c0,3.685,0.475,6.458,1.425,8.312c0.951,1.856,2.349,3.209,4.192,4.053
		c1.842,0.844,3.947,1.27,6.321,1.27c1.512,0,2.94-0.189,4.302-0.573c1.113-0.327,2.128-0.775,3.044-1.354
		c0.74-0.486,1.394-1.063,1.96-1.713c0.668-0.793,1.227-1.706,1.674-2.746c0.466-1.01,0.815-2.156,1.039-3.443
		c0.319-1.938,0.616-5.305,0.892-10.111l0.788-14.248c0.172-4.149,0.313-8.717,0.413-13.717c2.786,0.056,4.862,0.086,6.218,0.086
		l5.406-0.086l-1.151,19.735l-0.741,15.683c-0.223,3.662-0.566,6.391-1.037,8.189c-0.397,1.5-0.95,2.895-1.668,4.174
		c-0.693,1.147-1.521,2.174-2.486,3.072c-1.235,1.175-2.681,2.186-4.334,3.029c-1.855,0.959-3.818,1.653-5.9,2.091
		c-2.864,0.601-5.815,0.897-8.857,0.897c-3.114,0-6.029-0.313-8.748-0.938c-2.33-0.551-4.456-1.394-6.398-2.541
		c-1.939-1.148-3.477-2.43-4.615-3.848c-0.912-1.146-1.646-2.58-2.189-4.3c-0.614-1.909-0.926-4.04-0.926-6.391
		c0-0.815,0.024-1.872,0.076-3.166c0.05-1.3,0.134-2.972,0.262-5.018l0.336-5.774c0.126-1.803,0.264-4.449,0.414-7.943l0.372-8.887
		C-42.785,110.053-42.695,107.358-42.619,104.41z"/>
	<g>
		<linearGradient id="SVGID_5_" gradientUnits="userSpaceOnUse" x1="-6.1172" y1="118.7734" x2="40.6449" y2="118.9683">
			<stop  offset="0" style="stop-color:#407CCA"/>
			<stop  offset="0.4158" style="stop-color:#407CCA"/>
			<stop  offset="1" style="stop-color:#8EBDE6"/>
		</linearGradient>
		<polygon fill="url(#SVGID_5_)" points="39.5,104.41 26.394,104.41 13.809,124.532 18.354,133.431 21.416,133.431 		"/>
	</g>
	<linearGradient id="SVGID_6_" gradientUnits="userSpaceOnUse" x1="-6.1157" y1="118.4092" x2="40.6452" y2="118.604">
		<stop  offset="0" style="stop-color:#407CCA"/>
		<stop  offset="0.4158" style="stop-color:#407CCA"/>
		<stop  offset="1" style="stop-color:#8EBDE6"/>
	</linearGradient>
	<polygon fill="url(#SVGID_6_)" points="16.394,122.246 6.525,104.41 -6.819,104.41 8.648,132.523 9.459,132.523 16.366,122.289 	
		"/>
	<linearGradient id="SVGID_7_" gradientUnits="userSpaceOnUse" x1="-6.1523" y1="127.5557" x2="40.6085" y2="127.7505">
		<stop  offset="0" style="stop-color:#407CCA"/>
		<stop  offset="0.4158" style="stop-color:#407CCA"/>
		<stop  offset="1" style="stop-color:#8EBDE6"/>
	</linearGradient>
	<polygon fill="url(#SVGID_7_)" points="15.068,123.365 9.459,131.937 19.7,131.937 19.703,131.927 15.09,123.329 	"/>
	<g>
		<path fill="#656363" d="M-43.371,164.601c0.272,0.006,0.455,0.01,0.548,0.01c0.119,0,0.297-0.004,0.532-0.01l-0.167,3.288
			c-0.005,0.037-0.005,0.079-0.005,0.121c0,0.369,0.046,0.643,0.135,0.826c0.09,0.188,0.222,0.318,0.394,0.408
			c0.173,0.084,0.375,0.124,0.595,0.124c0.142,0,0.279-0.019,0.407-0.058c0.105-0.034,0.199-0.076,0.288-0.135
			c0.069-0.048,0.129-0.106,0.186-0.17c0.059-0.075,0.115-0.174,0.154-0.273c0.043-0.101,0.076-0.217,0.098-0.342
			c0.033-0.195,0.058-0.526,0.083-1.008l0.078-1.418c0.017-0.415,0.026-0.868,0.037-1.364c0.264,0.006,0.458,0.01,0.585,0.01
			l0.508-0.01l-0.104,1.964l-0.072,1.562c-0.019,0.362-0.055,0.631-0.1,0.813c-0.034,0.15-0.086,0.29-0.153,0.417
			c-0.065,0.113-0.144,0.217-0.235,0.309c-0.119,0.111-0.251,0.216-0.41,0.297c-0.175,0.096-0.359,0.166-0.556,0.211
			c-0.268,0.058-0.549,0.088-0.832,0.088c-0.296,0-0.571-0.03-0.824-0.094c-0.219-0.055-0.419-0.14-0.602-0.253
			c-0.181-0.116-0.328-0.241-0.434-0.384c-0.09-0.112-0.154-0.256-0.208-0.426c-0.058-0.191-0.086-0.402-0.086-0.636
			c0-0.083,0.001-0.187,0.006-0.317c0.006-0.129,0.016-0.295,0.026-0.5l0.03-0.572c0.01-0.18,0.024-0.443,0.04-0.791l0.038-0.883
			C-43.381,165.16-43.375,164.893-43.371,164.601z"/>
		<path fill="#656363" d="M-38.197,170.164c0.047-0.492,0.079-1.036,0.102-1.639l0.084-1.998c0.025-0.721,0.038-1.363,0.038-1.927
			c0.269,0.006,0.5,0.01,0.686,0.01c0.137,0,0.343-0.004,0.608-0.01c0.268,0.536,0.627,1.229,1.091,2.095
			c0.463,0.857,0.838,1.573,1.124,2.137l0.126-3.777c0.003-0.092,0.007-0.244,0.007-0.454c0.216,0.006,0.382,0.01,0.491,0.01
			c0.049,0,0.207-0.004,0.493-0.01l-0.088,1.497l-0.109,2.555l-0.041,1.512c-0.244-0.008-0.446-0.01-0.619-0.01
			c-0.134,0-0.353,0.002-0.656,0.01c-0.114-0.242-0.201-0.424-0.265-0.54c-0.093-0.179-0.298-0.548-0.612-1.108
			c-0.206-0.369-0.46-0.844-0.768-1.416c-0.224-0.427-0.419-0.794-0.578-1.107c-0.018,0.438-0.046,1.254-0.088,2.445
			c-0.015,0.486-0.027,1.063-0.035,1.727c-0.219-0.008-0.379-0.01-0.478-0.01C-37.757,170.154-37.928,170.156-38.197,170.164z"/>
		<path fill="#656363" d="M-32.566,170.164c0.056-0.936,0.106-1.896,0.136-2.877c0.036-0.981,0.052-1.733,0.052-2.25l-0.007-0.437
			l0.587,0.01c0.034,0,0.208-0.004,0.535-0.01c-0.095,1.428-0.156,3.282-0.185,5.563l-0.511-0.01
			C-32.045,170.154-32.247,170.156-32.566,170.164z"/>
		<path fill="#656363" d="M-29.165,170.164l-0.129-0.516c-0.019-0.066-0.093-0.326-0.232-0.779l-0.677-2.247l-0.623-2.021
			c0.239,0.006,0.439,0.01,0.6,0.01c0.095,0,0.264-0.004,0.511-0.01l0.109,0.454c0.023,0.09,0.055,0.215,0.099,0.373l0.848,2.988
			c0.053,0.19,0.116,0.443,0.2,0.76l0.188-0.496c0.042-0.121,0.146-0.362,0.291-0.717l1.098-2.681
			c0.03-0.079,0.064-0.165,0.098-0.253c0.031-0.088,0.083-0.229,0.153-0.429c0.253,0.006,0.446,0.01,0.579,0.01
			c0.079,0,0.262-0.004,0.544-0.01l-0.298,0.654l-1.904,4.399l-0.204,0.51c-0.306-0.008-0.503-0.01-0.609-0.01
			C-28.616,170.154-28.827,170.156-29.165,170.164z"/>
		<path fill="#656363" d="M-25.397,170.164l0.1-1.56l0.079-1.808l0.043-1.643v-0.554c0.574,0.006,1.172,0.01,1.794,0.01l0.678-0.004
			l1.004-0.006l-0.042,0.88l-0.333-0.02c-0.087-0.006-0.215-0.008-0.374-0.014c-0.159-0.004-0.326-0.004-0.492-0.004
			c-0.361,0-0.596,0-0.707,0.004c-0.1,0-0.262,0.006-0.477,0.014l-0.058,1.444c0.319,0.009,0.641,0.015,0.963,0.015
			c0.225,0,0.603-0.01,1.133-0.027c-0.021,0.253-0.035,0.545-0.05,0.893c-0.624-0.013-0.976-0.016-1.069-0.016
			c-0.272,0-0.614,0.009-1.024,0.028l-0.057,1.521l0.385,0.008c0.11,0,0.366-0.008,0.767-0.014l0.757-0.012l0.508-0.033
			c-0.023,0.317-0.039,0.614-0.048,0.896c-0.609-0.008-1.153-0.01-1.636-0.01l-1.153,0.002L-25.397,170.164z"/>
		<path fill="#656363" d="M-21.033,170.164c0.07-0.811,0.121-1.742,0.159-2.793c0.035-1.053,0.053-1.974,0.053-2.771
			c0.277,0.006,0.513,0.01,0.698,0.01c0.206,0,0.401-0.004,0.595-0.013c0.193-0.009,0.399-0.012,0.617-0.012
			c0.27,0,0.509,0.015,0.722,0.052c0.216,0.032,0.404,0.115,0.569,0.243c0.164,0.127,0.288,0.283,0.368,0.466
			c0.078,0.182,0.122,0.393,0.122,0.636c0,0.152-0.018,0.295-0.047,0.433c-0.031,0.14-0.075,0.266-0.134,0.388
			c-0.061,0.123-0.129,0.227-0.21,0.318c-0.082,0.092-0.164,0.166-0.245,0.217c-0.079,0.055-0.169,0.098-0.272,0.134
			c-0.102,0.039-0.243,0.089-0.411,0.14l0.237,0.535c0.073,0.174,0.219,0.481,0.432,0.923l0.354,0.722
			c0.02,0.04,0.076,0.162,0.169,0.373c-0.286-0.008-0.471-0.01-0.562-0.01c-0.113,0-0.309,0.002-0.593,0.01l-0.388-1.085
			c-0.068-0.167-0.149-0.362-0.242-0.588l-0.423-0.989c-0.04-0.092-0.099-0.23-0.173-0.414c0.155,0.03,0.296,0.047,0.424,0.047
			c0.201,0,0.385-0.037,0.548-0.114c0.166-0.075,0.293-0.194,0.381-0.35c0.091-0.161,0.135-0.335,0.135-0.521
			c0-0.116-0.021-0.221-0.058-0.32c-0.039-0.097-0.104-0.18-0.197-0.249c-0.091-0.067-0.198-0.11-0.324-0.128
			c-0.122-0.02-0.253-0.027-0.376-0.027c-0.066,0-0.164,0-0.285,0.002c-0.122,0-0.269,0.004-0.448,0.004l-0.061,1.678l-0.066,3.055
			l-0.541-0.01C-20.593,170.154-20.765,170.156-21.033,170.164z"/>
		<path fill="#656363" d="M-16.641,170.048c-0.016-0.419-0.039-0.757-0.071-1.011c0.456,0.236,0.871,0.358,1.241,0.358
			c0.149,0,0.289-0.027,0.419-0.079c0.126-0.052,0.224-0.127,0.287-0.222c0.059-0.099,0.091-0.208,0.091-0.326
			c0-0.091-0.014-0.173-0.046-0.249c-0.042-0.102-0.117-0.205-0.222-0.314c-0.134-0.146-0.368-0.396-0.71-0.736
			c-0.163-0.164-0.275-0.287-0.34-0.354c-0.137-0.155-0.242-0.297-0.319-0.417c-0.073-0.128-0.124-0.247-0.16-0.371
			c-0.035-0.122-0.049-0.253-0.049-0.39c0-0.256,0.061-0.494,0.185-0.719c0.122-0.225,0.302-0.402,0.546-0.527
			c0.242-0.127,0.548-0.188,0.919-0.188c0.333,0,0.712,0.049,1.122,0.143c0.013,0.282,0.037,0.605,0.071,0.968
			c-0.362-0.161-0.694-0.24-1.003-0.24c-0.224,0-0.411,0.058-0.559,0.176c-0.145,0.122-0.217,0.265-0.217,0.425
			c0,0.042,0.004,0.086,0.016,0.137c0.01,0.045,0.025,0.091,0.048,0.14c0.017,0.042,0.053,0.104,0.108,0.173
			c0.05,0.07,0.123,0.156,0.223,0.253c0.097,0.097,0.188,0.174,0.261,0.233l0.429,0.455c0.107,0.106,0.206,0.209,0.288,0.313
			c0.09,0.099,0.166,0.195,0.225,0.29c0.06,0.091,0.11,0.179,0.144,0.263c0.035,0.084,0.061,0.17,0.076,0.261
			c0.021,0.085,0.03,0.179,0.03,0.277c0,0.228-0.047,0.444-0.139,0.645c-0.089,0.205-0.219,0.369-0.39,0.5
			c-0.169,0.135-0.355,0.22-0.554,0.271c-0.208,0.048-0.418,0.075-0.647,0.075c-0.145,0-0.325-0.015-0.518-0.045
			C-16.054,170.185-16.316,170.129-16.641,170.048z"/>
		<path fill="#656363" d="M-13.483,170.164c0.242-0.5,0.525-1.119,0.853-1.855l0.916-2.058c0.288-0.637,0.525-1.185,0.714-1.65
			c0.3,0.006,0.518,0.01,0.641,0.01c0.221,0,0.435-0.004,0.65-0.01l0.499,1.665l1.084,3.447l0.151,0.451l-0.525-0.01
			c-0.117,0-0.326,0.002-0.612,0.01c-0.053-0.242-0.143-0.571-0.262-0.979c-0.12-0.412-0.222-0.743-0.306-0.998h-1.837
			c-0.268,0.645-0.537,1.305-0.796,1.977l-0.566-0.01C-12.986,170.154-13.188,170.156-13.483,170.164z M-11.206,167.341h1.334
			l-0.548-1.888l-0.281,0.686L-11.206,167.341z"/>
		<path fill="#656363" d="M-7.495,170.164c0.07-0.82,0.125-1.73,0.168-2.732c0.042-1.004,0.064-1.945,0.068-2.831
			c0.241,0.006,0.44,0.01,0.597,0.01c0.11,0,0.277-0.004,0.518-0.01c-0.036,0.491-0.06,1.048-0.089,1.671l-0.07,1.635
			c-0.021,0.467-0.035,0.93-0.048,1.395l0.603,0.004c0.563,0,0.937,0,1.11-0.004c0.179-0.006,0.35-0.012,0.526-0.024
			c-0.024,0.269-0.042,0.563-0.061,0.888c-0.607-0.008-1.132-0.01-1.567-0.01l-1.097,0.002L-7.495,170.164z"/>
		<path fill="#656363" d="M-1.847,170.164l0.097-1.56l0.072-1.808l0.048-1.643v-0.554c0.576,0.006,1.175,0.01,1.798,0.01
			l0.671-0.004l1.008-0.006l-0.042,0.88l-0.333-0.02c-0.089-0.006-0.218-0.008-0.376-0.014c-0.161-0.004-0.326-0.004-0.493-0.004
			c-0.361,0-0.597,0-0.702,0.004c-0.106,0-0.268,0.006-0.483,0.014l-0.053,1.444c0.315,0.009,0.641,0.015,0.962,0.015
			c0.224,0,0.601-0.01,1.134-0.027c-0.023,0.253-0.035,0.545-0.053,0.893c-0.62-0.013-0.974-0.016-1.065-0.016
			c-0.275,0-0.615,0.009-1.029,0.028l-0.055,1.521l0.383,0.008c0.111,0,0.368-0.008,0.771-0.014l0.755-0.012l0.509-0.033
			c-0.022,0.317-0.041,0.614-0.048,0.896c-0.606-0.008-1.153-0.01-1.64-0.01l-1.149,0.002L-1.847,170.164z"/>
		<path fill="#656363" d="M1.872,170.164l0.26-0.373c0.083-0.119,0.223-0.316,0.416-0.609l0.95-1.418l0.298-0.472l-0.43-0.821
			l-1.034-1.87c0.225,0.006,0.446,0.01,0.653,0.01c0.17,0,0.36-0.004,0.58-0.01c0.123,0.319,0.27,0.654,0.43,1.002
			c0.161,0.341,0.286,0.627,0.371,0.847c0.145-0.231,0.347-0.53,0.615-0.904c0.266-0.375,0.474-0.688,0.621-0.944
			c0.189,0.006,0.385,0.01,0.58,0.01c0.126,0,0.32-0.004,0.577-0.01c-0.184,0.283-0.448,0.675-0.789,1.171
			c-0.336,0.498-0.659,0.988-0.963,1.469c0.314,0.627,0.847,1.596,1.592,2.924c-0.269-0.008-0.464-0.01-0.594-0.01
			c-0.198,0-0.411,0.002-0.643,0.01c-0.128-0.27-0.303-0.592-0.519-0.973c-0.221-0.381-0.392-0.691-0.521-0.938
			c-0.128,0.216-0.323,0.509-0.583,0.883c-0.262,0.371-0.491,0.713-0.682,1.027c-0.254-0.008-0.446-0.01-0.581-0.01
			C2.332,170.154,2.125,170.156,1.872,170.164z"/>
		<path fill="#656363" d="M10.998,169.146c-0.054,0.316-0.099,0.639-0.134,0.968c-0.265,0.056-0.508,0.095-0.724,0.115
			c-0.227,0.019-0.416,0.03-0.572,0.03c-0.351,0-0.684-0.057-1-0.17c-0.315-0.115-0.604-0.293-0.86-0.539
			c-0.253-0.25-0.437-0.545-0.553-0.898c-0.113-0.348-0.17-0.732-0.17-1.144c0-0.454,0.068-0.872,0.207-1.255
			c0.137-0.381,0.332-0.707,0.589-0.969c0.26-0.264,0.563-0.459,0.913-0.588c0.356-0.129,0.72-0.193,1.102-0.193
			c0.375,0,0.789,0.049,1.234,0.148c0.009,0.24,0.013,0.414,0.022,0.514l0.024,0.437c-0.264-0.079-0.481-0.138-0.658-0.169
			c-0.172-0.027-0.336-0.044-0.496-0.044c-0.249,0-0.49,0.044-0.72,0.134c-0.229,0.088-0.435,0.231-0.608,0.42
			c-0.173,0.195-0.309,0.426-0.401,0.7c-0.098,0.274-0.143,0.557-0.143,0.855c0,0.353,0.058,0.669,0.174,0.947
			c0.116,0.28,0.301,0.508,0.559,0.682c0.259,0.173,0.579,0.259,0.956,0.259C10.086,169.387,10.511,169.305,10.998,169.146z"/>
		<path fill="#656363" d="M11.747,170.164l0.081-1.463c0.045-0.801,0.075-1.541,0.094-2.223c0.017-0.686,0.03-1.162,0.03-1.43
			l-0.002-0.448c0.269,0.006,0.465,0.01,0.578,0.01c0.087,0,0.264-0.004,0.529-0.01l-0.095,1.839l-0.01,0.423h2.376l0.045-1.102
			c0.01-0.378,0.013-0.628,0.013-0.746v-0.414l0.583,0.01c0.05,0,0.224-0.004,0.519-0.01l-0.111,2.22l-0.049,1.647l-0.012,0.965
			c-0.008,0.398-0.008,0.64-0.008,0.731l-0.543-0.01c-0.068,0-0.262,0.002-0.581,0.01c0.062-0.772,0.097-1.578,0.116-2.428h-2.383
			l-0.05,1.501l-0.014,0.927l-0.57-0.01C12.213,170.154,12.037,170.156,11.747,170.164z"/>
		<path fill="#656363" d="M16.656,170.164c0.242-0.5,0.526-1.119,0.852-1.855l0.916-2.058c0.291-0.637,0.529-1.185,0.716-1.65
			c0.3,0.006,0.511,0.01,0.64,0.01c0.221,0,0.436-0.004,0.65-0.01l0.498,1.665l1.085,3.447l0.15,0.451l-0.525-0.01
			c-0.118,0-0.321,0.002-0.61,0.01c-0.053-0.242-0.14-0.571-0.26-0.979c-0.123-0.412-0.226-0.743-0.31-0.998h-1.835
			c-0.269,0.645-0.534,1.305-0.797,1.977l-0.565-0.01C17.153,170.154,16.951,170.156,16.656,170.164z M18.935,167.341h1.336
			l-0.549-1.888l-0.284,0.686L18.935,167.341z"/>
		<path fill="#656363" d="M22.666,170.164c0.048-0.492,0.079-1.036,0.1-1.639l0.085-1.998c0.022-0.721,0.038-1.363,0.038-1.927
			c0.272,0.006,0.498,0.01,0.689,0.01c0.136,0,0.343-0.004,0.612-0.01c0.256,0.536,0.623,1.229,1.084,2.095
			c0.464,0.857,0.839,1.573,1.125,2.137l0.129-3.777c0-0.092,0.001-0.244,0.001-0.454c0.218,0.006,0.383,0.01,0.495,0.01
			c0.043,0,0.207-0.004,0.491-0.01l-0.093,1.497l-0.104,2.555l-0.04,1.512c-0.241-0.008-0.449-0.01-0.621-0.01
			c-0.129,0-0.35,0.002-0.654,0.01c-0.119-0.242-0.204-0.424-0.266-0.54c-0.094-0.179-0.301-0.548-0.612-1.108
			c-0.203-0.369-0.459-0.844-0.765-1.416c-0.227-0.427-0.419-0.794-0.579-1.107c-0.019,0.438-0.048,1.254-0.088,2.445
			c-0.015,0.486-0.032,1.063-0.038,1.727c-0.216-0.008-0.376-0.01-0.475-0.01C23.104,170.154,22.933,170.156,22.666,170.164z"/>
		<path fill="#656363" d="M31.038,166.984c0.321,0.007,0.627,0.01,0.921,0.01c0.384,0,0.698-0.003,0.956-0.01
			c-0.058,0.91-0.102,1.918-0.128,3.033c-0.385,0.088-0.735,0.152-1.047,0.188c-0.312,0.037-0.577,0.055-0.794,0.055
			c-0.412,0-0.786-0.045-1.137-0.152c-0.356-0.096-0.65-0.262-0.891-0.486c-0.24-0.229-0.425-0.524-0.548-0.895
			c-0.131-0.363-0.197-0.753-0.197-1.164c0-0.35,0.052-0.691,0.147-1.014c0.09-0.325,0.233-0.625,0.416-0.895
			c0.184-0.273,0.406-0.5,0.668-0.684c0.258-0.179,0.543-0.303,0.835-0.37c0.292-0.063,0.604-0.097,0.931-0.097
			c0.452,0,0.975,0.07,1.558,0.213c0,0.307,0.015,0.63,0.036,0.969c-0.546-0.215-1.047-0.324-1.489-0.324
			c-0.286,0-0.556,0.049-0.806,0.144c-0.258,0.098-0.484,0.243-0.662,0.44c-0.187,0.201-0.331,0.448-0.422,0.744
			c-0.096,0.295-0.146,0.6-0.146,0.916c0,0.351,0.057,0.661,0.165,0.938c0.111,0.277,0.295,0.49,0.558,0.643
			c0.259,0.152,0.556,0.228,0.896,0.228c0.122,0,0.269-0.015,0.435-0.038c0.168-0.025,0.343-0.074,0.525-0.131l0.058-1.435
			l-0.276-0.003c-0.158,0-0.356,0.003-0.592,0.009C31.025,167.453,31.038,167.176,31.038,166.984z"/>
		<path fill="#656363" d="M33.734,170.164l0.104-1.56l0.07-1.808l0.045-1.643v-0.554c0.577,0.006,1.175,0.01,1.8,0.01l0.667-0.004
			l1.007-0.006l-0.043,0.88l-0.325-0.02c-0.095-0.006-0.217-0.008-0.376-0.014c-0.163-0.004-0.327-0.004-0.493-0.004
			c-0.366,0-0.597,0-0.706,0.004c-0.109,0-0.263,0.006-0.479,0.014l-0.053,1.444c0.315,0.009,0.636,0.015,0.964,0.015
			c0.219,0,0.598-0.01,1.132-0.027c-0.027,0.253-0.036,0.545-0.051,0.893c-0.626-0.013-0.976-0.016-1.07-0.016
			c-0.276,0-0.61,0.009-1.026,0.028l-0.055,1.521l0.386,0.008c0.105,0,0.365-0.008,0.762-0.014l0.758-0.012l0.513-0.033
			c-0.03,0.317-0.041,0.614-0.055,0.896c-0.605-0.008-1.149-0.01-1.636-0.01l-1.148,0.002L33.734,170.164z"/>
	</g>
</g>
<path fill-rule="evenodd" clip-rule="evenodd" fill="#407CCA" d="M19.857,8.967c0,3.465,0,11.37,0,11.37
	c0,1.483,0.777,3.755,1.772,5.432c0.992,1.684,4.152,5.529,5.34,7.118c0.881,1.278,1.484,3.063,1.484,4.249v9.089h-4.938V34.06
	H11.358V21.914h6.029v-6.117H5.23v24.405h12.157v12.16H29.14c2.967,0,5.343-2.373,5.343-5.341V35.653
	c0-1.488-0.806-3.753-1.789-5.437c-0.979-1.681-4.147-5.537-5.334-7.113c-0.886-1.283-1.479-3.066-1.479-4.256V9.759h4.932v12.155
	h12.175V34.06h-6.029v6.143h12.153V15.797H36.851V3.638H25.186C22.235,3.638,19.857,5.901,19.857,8.967z"/>
<g>
	<path fill-rule="evenodd" clip-rule="evenodd" fill="#686564" d="M93.056,34.343c0,0.688-0.54,1.229-1.11,1.229h-4.918v4.116h7.675
		c2.326,0,4.248-2.06,4.248-4.385V12.14H87.028v4.117h6.028V34.343L93.056,34.343z M87.028,35.572v4.116h-6.033v9.998h-5.889v-9.998
		h-6.032v-4.116h6.032V16.257h-6.032V12.14h6.032V6.524h5.889v5.615h6.033v4.117h-6.033v19.315H87.028L87.028,35.572L87.028,35.572z
		 M69.074,12.14H57.021v23.164c0,2.325,1.916,4.385,4.38,4.385h7.673v-4.116h-4.927c-0.689,0-1.241-0.542-1.241-1.229V16.257h6.168
		V12.14L69.074,12.14z"/>
	<path fill-rule="evenodd" clip-rule="evenodd" fill="#686564" d="M114.683,10.222h1.094c0.411,2.336,3.563,6.573,6.306,8.226
		h-7.399v31.239h8.763v-3.424h-6.033V30.371h5.21v-3.434h-5.21v-4.933h5.21v-3.284c0.272,0.267,0.551,0.267,0.823,0.404v-3.558
		c-1.363-1.235-3.144-7.261-2.877-9.043h-5.886V10.222L114.683,10.222z M107.274,18.447h7.409v31.239h-8.785v-3.424h6.047V30.371
		h-5.204v-3.434h5.204v-4.933h-5.204v-3.158c-0.282,0.141-0.555,0.141-0.843,0.278v-3.558c1.376-1.235,3.155-7.261,2.889-9.043
		h5.896v3.697h-1.102C113.167,12.558,110.018,16.795,107.274,18.447L107.274,18.447z"/>
	<path fill-rule="evenodd" clip-rule="evenodd" fill="#686564" d="M118.381,44.213c2.6-2.197,4.514-7.127,4.241-11.383l-3.155,1.366
		c0.55,1.928-0.401,5.763-1.086,7.134V44.213z"/>
	<path fill-rule="evenodd" clip-rule="evenodd" fill="#686564" d="M106.741,32.83c-0.427,4.256,1.491,9.186,4.1,11.383V41.33
		c-0.678-1.371-1.5-5.206-0.958-7.134L106.741,32.83z"/>
	<polygon fill-rule="evenodd" clip-rule="evenodd" fill="#686564" points="124.267,6.524 124.267,19.407 129.619,19.407 
		129.619,9.951 144.131,9.951 144.131,19.407 149.479,19.407 149.479,6.524 	"/>
	<path fill-rule="evenodd" clip-rule="evenodd" fill="#686564" d="M142.768,12.686h-4.383c0.131,1.106-0.41,8.505-1.51,9.048
		c-1.094-0.543-1.502-7.941-1.502-9.048h-4.379c-0.146,1.106,0.41,7.945,1.086,9.048h-7.946v3.562h9.87v20.968h-3.986V27.491h-5.476
		v17.941c0,2.338,2.466,4.254,4.797,4.254h15.212c2.459,0,4.383-1.916,4.383-4.254V27.491h-5.48v18.771h-4.102V25.295h9.98v-3.562
		h-7.662C142.348,20.631,142.906,13.792,142.768,12.686z"/>
	<path fill-rule="evenodd" clip-rule="evenodd" fill="#686564" d="M232.051,27.074c1.652,0,2.332,0.417,3.02,1.237h-3.02v2.881
		h3.709v-1.916c0.818,0.817,1.914,1.78,4.111,2.32v-2.594c-1.512-0.691-2.197-1.376-3.148-2.606
		c0.951-0.821,1.492-1.925,1.492-3.163v-6.02h-6.164v2.193h1.5v1.647h-1.5v2.179h1.5c0,0.827-0.666,1.517-1.5,1.655V27.074
		L232.051,27.074z M232.051,15.845L232.051,15.845v-2.195h7.279v2.195H232.051L232.051,15.845z M229.047,28.312h3.004v2.881h-9.861
		v-2.881h2.203v-1.237h-2.203v-2.186h2.203v-1.655h-2.203v-2.179h2.203v-1.647h-2.203v-2.193h2.203v-1.369h-2.203v-2.195h2.203V12
		h4.654v1.649h3.004v2.195h-3.004v1.369h3.004v2.193h-3.004v1.647h3.004v2.179h-3.004v1.655h2.877h0.127v2.186
		c-0.127,0-0.264,0-0.4,0h-2.604V28.312L229.047,28.312L229.047,28.312z M222.189,13.649h-8.08v2.195h8.08V13.649L222.189,13.649
		L222.189,13.649z M222.189,17.214h-6.986v6.02c0,2.062,1.779,3.841,3.834,3.841h3.152v-2.186h-0.543
		c-0.963,0-1.785-0.828-1.785-1.655h2.328v-2.179h-2.328v-1.647h2.328V17.214L222.189,17.214L222.189,17.214z M222.189,28.312h-8.08
		v2.881h8.08V28.312L222.189,28.312z"/>
	<path fill-rule="evenodd" clip-rule="evenodd" fill="#686564" d="M215.889,38.041c2.885,3.017,6.846,5.073,11.232,4.922v-2.599
		c-2.049,0-4.799-1.367-6.162-2.323H215.889z"/>
	<path fill-rule="evenodd" clip-rule="evenodd" fill="#686564" d="M237.396,32.285H231.5v1.367h-16.984v2.875H231.5v3.57
		c0,0.677-0.549,1.232-1.225,1.232h-1.639v2.736h4.516c2.324,0,4.244-1.775,4.244-4.107v-3.432h2.475v-2.875h-2.475V32.285z"/>
	<path fill-rule="evenodd" clip-rule="evenodd" fill="#686564" d="M241.93,45.032c0,0.683-0.148,1.23-0.822,1.23H226.98v3.424
		h16.584c2.332,0,4.244-1.916,4.244-4.254V6.524H226.98v3.427h14.949V45.032L241.93,45.032z M226.98,46.263v3.424h-16.574
		c-2.33,0-4.244-1.916-4.244-4.254V6.524h20.818v3.427h-14.934v35.081c0,0.683,0.141,1.23,0.689,1.23H226.98L226.98,46.263z"/>
	<path fill-rule="evenodd" clip-rule="evenodd" fill="#686564" d="M180.834,33.652h16.99v-3.835h-15.07v-2.19h15.07v-3.701h-15.07
		v-2.327h15.07v-3.696h-15.07v-2.201h15.07v-3.832h-15.07V6.524h-5.896v5.345h-6.156v3.832h6.156v2.201h-6.156v3.696h6.156v2.327
		h-6.156v3.701h6.156v2.19h-6.156v3.835h4.25v2.064h-4.25v4.647c0.127-0.267,0.264-0.537,0.41-0.822h3.84v4.395
		c0,1.368-1.246,2.604-2.607,2.604h-1.643v3.146h6.027c2.188,0,3.967-1.777,3.967-3.972v-6.173h3.975
		c1.375,3.294,6.445,7.539,14.525,10.145v-2.873c-2.465-1.509-7.4-4.798-7.945-7.271h8.902v-3.825h-19.318V33.652L180.834,33.652z
		 M170.701,11.869v3.832h-6.16v2.201h6.16v3.696h-6.16v2.327h6.16v3.701h-6.16v2.19h6.16v3.835h-7.826
		c-2.326,0-4.232-2.056-4.232-4.376V19.125c-0.693,0.142-1.371,0.416-2.195,0.552v-3.42c4.383-2.878,5.066-7.676,5.889-9.732h7.262
		c-0.553,1.373-1.096,3.293-2.322,5.345H170.701L170.701,11.869L170.701,11.869z M170.701,35.717v4.647
		c-1.926,3.153-6.855,6.862-14.254,9.322v-2.873c2.602-1.509,7.398-4.798,7.941-7.271h-8.9v-3.825H170.701L170.701,35.717
		L170.701,35.717z M170.701,46.54L170.701,46.54v3.146h-1.926V46.54H170.701z"/>
</g>
</svg>
