<?xml version="1.0" encoding="utf-8"?>
<!-- Generator: Adobe Illustrator 16.0.0, SVG Export Plug-In . SVG Version: 6.00 Build 0)  -->
<!DOCTYPE svg PUBLIC "-//W3C//DTD SVG 1.1//EN" "http://www.w3.org/Graphics/SVG/1.1/DTD/svg11.dtd">
<svg version="1.1" id="圖層_1" xmlns="http://www.w3.org/2000/svg" xmlns:xlink="http://www.w3.org/1999/xlink" x="0px" y="0px"
	 width="291px" height="124px" viewBox="0 0 291 124" enable-background="new 0 0 291 124" xml:space="preserve">
<g>
	<g>
		<linearGradient id="SVGID_1_" gradientUnits="userSpaceOnUse" x1="39.5635" y1="96.4814" x2="72.0041" y2="96.6166">
			<stop  offset="0" style="stop-color:#407CCA"/>
			<stop  offset="0.4158" style="stop-color:#407CCA"/>
			<stop  offset="1" style="stop-color:#8EBDE6"/>
		</linearGradient>
		<polygon fill="url(#SVGID_1_)" points="59.218,86.388 58.134,86.388 53.455,92.849 60.878,106.745 70.116,106.745 		"/>
		<linearGradient id="SVGID_2_" gradientUnits="userSpaceOnUse" x1="39.5645" y1="96.2085" x2="72.0048" y2="96.3437">
			<stop  offset="0" style="stop-color:#407CCA"/>
			<stop  offset="0.4158" style="stop-color:#407CCA"/>
			<stop  offset="1" style="stop-color:#8EBDE6"/>
		</linearGradient>
		<polygon fill="url(#SVGID_2_)" points="51.253,86.388 49.911,86.388 35.13,106.06 44.632,106.06 54.731,92.633 54.405,92.043 		
			"/>
		<linearGradient id="SVGID_3_" gradientUnits="userSpaceOnUse" x1="39.5933" y1="89.3188" x2="72.0357" y2="89.454">
			<stop  offset="0" style="stop-color:#407CCA"/>
			<stop  offset="0.4158" style="stop-color:#407CCA"/>
			<stop  offset="1" style="stop-color:#8EBDE6"/>
		</linearGradient>
		<polygon fill="url(#SVGID_3_)" points="49.836,85.925 53.161,92.2 53.507,92.849 58.462,85.925 		"/>
	</g>
	<path fill-rule="evenodd" clip-rule="evenodd" fill="#666464" stroke="#666464" stroke-width="0.15" stroke-miterlimit="10" d="
		M120.287,84.451v-3.616h-3.72c0.559-1.299,1.067-2.635,1.521-3.995c0.428-1.383,0.87-2.75,1.272-4.132h-4.399
		c-0.309,1.426-0.699,2.813-1.147,4.159c-0.455,1.355-0.97,2.669-1.54,3.968h-7.449v3.616H120.287L120.287,84.451z M111.501,79.333
		h-4.298c-0.393-1.062-0.733-2.142-1.018-3.248c-0.303-1.117-0.567-2.234-0.784-3.377h4.076c0.262,1.143,0.541,2.26,0.873,3.377
		C110.675,77.191,111.062,78.271,111.501,79.333L111.501,79.333z M125.932,107.734c0,0.623-0.139,1.185-0.391,1.716
		c-0.283,0.519-0.638,0.971-1.115,1.33c-0.45,0.356-0.958,0.65-1.527,0.838c-0.591,0.197-1.177,0.299-1.782,0.299h-4.038l-1.76-3.67
		h4.968c0.313-0.006,0.589-0.124,0.81-0.333c0.211-0.237,0.324-0.472,0.324-0.757V72.509c0-0.401-0.129-0.741-0.382-0.992
		c-0.279-0.265-0.638-0.396-1.109-0.412h-14.949c-0.224,0-0.439,0.075-0.622,0.194c-0.192,0.131-0.339,0.288-0.46,0.469
		c-0.105,0.192-0.169,0.387-0.169,0.58v39.568h-4.391V71.264c0.007-0.536,0.117-1.016,0.354-1.464
		c0.224-0.441,0.508-0.842,0.888-1.174c0.395-0.366,0.847-0.653,1.354-0.874c0.482-0.201,0.989-0.313,1.487-0.313h17.847
		c0.739,0,1.399,0.119,1.992,0.366c0.62,0.238,1.103,0.587,1.524,1.024c0.357,0.385,0.657,0.866,0.841,1.415
		c0.194,0.556,0.306,1.162,0.306,1.856V107.734L125.932,107.734z M120.388,93.454v-3.616h-4.956
		c-0.192-0.436-0.376-0.903-0.548-1.411c-0.165-0.5-0.298-1.01-0.467-1.515c-0.13-0.521-0.274-1.009-0.374-1.479h-4.566
		c0.102,0.469,0.222,0.968,0.361,1.489c0.126,0.517,0.257,1.03,0.403,1.535c0.146,0.499,0.281,0.95,0.422,1.381h-5.737v3.669h2.529
		v6.774c0,0.646,0.118,1.246,0.331,1.762c0.232,0.536,0.526,0.981,0.902,1.343c0.365,0.335,0.788,0.603,1.246,0.793
		c0.452,0.19,0.936,0.295,1.457,0.295h7.196l1.447-3.618h-7.352c-0.218-0.004-0.41-0.125-0.59-0.321
		c-0.194-0.213-0.276-0.447-0.287-0.723v-6.357H120.388L120.388,93.454z M98.672,95.525c-0.474-1.538-0.879-3.078-1.219-4.647
		c-0.333-1.579-0.627-3.161-0.858-4.773h-4.192c0.071,0.602,0.162,1.246,0.268,1.958c0.095,0.69,0.211,1.386,0.325,2.042
		c0.095,0.659,0.201,1.259,0.29,1.745h-6.768l12.005-16.817h-5.341l-2.385,3.317h-4.332l8.63-11.895h-5.441L82.16,77.059
		c-0.374,0.573-0.606,1.148-0.659,1.729c-0.062,0.578,0.01,1.103,0.243,1.585c0.213,0.443,0.555,0.798,1.036,1.071
		c0.489,0.281,1.092,0.412,1.815,0.426h3.77l-6.358,8.845c-0.389,0.573-0.58,1.147-0.629,1.693
		c-0.042,0.554,0.061,1.065,0.267,1.509c0.215,0.427,0.511,0.771,0.878,1.038c0.383,0.266,0.776,0.405,1.194,0.405h8.431
		l1.455-2.638c0.044,0.438,0.146,0.889,0.272,1.386c0.121,0.496,0.253,0.969,0.391,1.417H98.672L98.672,95.525z M98.822,108.563
		c-0.38-1.743-0.693-3.538-0.932-5.407c-0.228-1.874-0.416-3.726-0.57-5.561h-3.516c0.131,1.89,0.302,3.743,0.543,5.561
		c0.233,1.82,0.528,3.622,0.855,5.407H98.822L98.822,108.563z M93.647,111.917c-0.488-2.263-0.849-4.599-1.092-7.005
		c-0.253-2.414-0.377-4.86-0.407-7.317h-3.979c0.023,2.456,0.137,4.897,0.338,7.273c0.222,2.402,0.518,4.754,0.909,7.049H93.647
		L93.647,111.917z M86.657,97.595h-3.925c-0.06,1.632-0.152,3.272-0.264,4.897c-0.11,1.624-0.266,3.229-0.494,4.819
		c-0.23,1.563-0.535,3.109-0.955,4.605h4.296c0.409-2.306,0.741-4.66,0.965-7.063C86.519,102.453,86.636,100.029,86.657,97.595
		L86.657,97.595z M178.625,110.729c-0.542-0.7-1.084-1.488-1.632-2.364c-0.53-0.874-1.042-1.798-1.522-2.756
		c-0.507-0.955-0.949-1.93-1.342-2.916c-0.394-0.976-0.725-1.907-0.981-2.825h-4.659c0.301,1.225,0.673,2.451,1.163,3.711
		c0.458,1.256,0.986,2.501,1.573,3.708c0.575,1.221,1.181,2.363,1.816,3.442H178.625L178.625,110.729z M178.728,91.849h-6.265
		c-0.185-0.184-0.393-0.405-0.648-0.688c-0.221-0.269-0.457-0.587-0.67-0.878c-0.242-0.31-0.423-0.601-0.592-0.861h-14.49
		c-0.287,0.416-0.636,0.846-1.012,1.293c-0.377,0.431-0.765,0.818-1.111,1.134h-5.837c0.121,0.559,0.24,1.181,0.365,1.855
		c0.12,0.68,0.194,1.373,0.258,2.061c0.059,0.687,0.094,1.34,0.059,1.93c-0.087,0.828-0.238,1.553-0.49,2.188
		c-0.233,0.619-0.589,1.152-1.011,1.584c-0.469,0.47-1.052,0.822-1.727,1.051c-0.686,0.231-1.456,0.348-2.316,0.348h-2.59
		l-1.704-3.617h3.474c0.302,0,0.59-0.063,0.866-0.174c0.271-0.112,0.465-0.276,0.633-0.509c0.168-0.244,0.252-0.525,0.252-0.87
		c0.061-1.749-0.071-3.409-0.387-4.974c-0.336-1.544-0.809-3.022-1.432-4.444c-0.625-1.423-1.354-2.798-2.221-4.133
		c0.698-1.89,1.33-3.803,1.85-5.762c0.529-1.948,0.953-3.944,1.259-5.987c0.025-0.216-0.045-0.392-0.168-0.541
		c-0.132-0.145-0.309-0.224-0.562-0.23h-3.206c-0.259,0.006-0.515,0.1-0.713,0.307c-0.199,0.192-0.302,0.437-0.321,0.724v39.32
		h-4.395V71.883c0.008-0.528,0.139-1.038,0.365-1.547c0.234-0.507,0.564-0.952,0.971-1.343c0.338-0.325,0.75-0.575,1.198-0.75
		c0.441-0.201,0.929-0.291,1.447-0.291h6.779c0.635,0,1.147,0.12,1.595,0.337c0.457,0.239,0.815,0.528,1.106,0.906
		c0.303,0.414,0.522,0.9,0.645,1.467c0.12,0.556,0.12,1.137,0.014,1.732c-0.105,0.595-0.279,1.292-0.46,2.077
		c-0.199,0.768-0.423,1.592-0.676,2.464c-0.246,0.874-0.512,1.716-0.771,2.57c-0.281,0.866-0.556,1.663-0.812,2.405
		c-0.273,0.74-0.504,1.391-0.742,1.924c0.75,1.194,1.399,2.415,1.952,3.683c0.573,1.251,1.048,2.542,1.464,3.87
		c1.121-0.739,2.137-1.582,3.049-2.545c0.904-0.959,1.775-1.978,2.576-3.052h-3.095c-0.471-0.741-0.88-1.531-1.227-2.342
		c-0.354-0.829-0.644-1.663-0.848-2.516h4.304c0.188,0.625,0.422,1.306,0.715,1.975c0.296,0.682,0.621,1.3,0.99,1.861
		c0.209-0.296,0.456-0.644,0.749-1.072c0.26-0.429,0.548-0.874,0.819-1.334c0.266-0.467,0.516-0.878,0.705-1.276h-1.662
		c-0.305-0.596-0.596-1.181-0.875-1.762c-0.28-0.587-0.539-1.188-0.781-1.802c-0.165,0.393-0.396,0.787-0.637,1.207
		c-0.256,0.414-0.518,0.804-0.809,1.172h-5.165c1.078-1.421,1.997-2.828,2.785-4.257c0.78-1.431,1.464-2.879,2.032-4.347
		c0.597-1.47,1.127-2.987,1.602-4.537h4.496c-0.084,0.469-0.211,0.942-0.354,1.412c-0.154,0.451-0.307,0.882-0.476,1.281h5.118
		c0.406,0,0.783,0.038,1.189,0.11c0.385,0.092,0.757,0.223,1.084,0.396c0.374,0.156,0.688,0.374,0.969,0.661
		c0.277,0.292,0.508,0.64,0.697,1.047c0.492,1.168,0.978,2.311,1.467,3.415c0.503,1.106,1.018,2.173,1.525,3.211
		c0.713-0.9,1.359-1.805,1.904-2.729c0.563-0.907,1.072-1.881,1.569-2.913c0.091-0.262,0.091-0.5-0.02-0.716
		c-0.108-0.186-0.282-0.309-0.56-0.315H167.4v-3.312h6.771c0.577,0.018,1.069,0.121,1.505,0.355
		c0.438,0.224,0.787,0.545,1.036,0.942c0.281,0.421,0.45,0.894,0.504,1.421c0.037,0.522-0.039,1.047-0.254,1.578
		c-0.292,0.711-0.673,1.5-1.118,2.336c-0.427,0.842-0.927,1.701-1.444,2.583c-0.538,0.87-1.077,1.733-1.655,2.548
		c-0.566,0.829-1.119,1.576-1.674,2.251c0.96,1.695,2.077,3.333,3.337,4.939C175.686,88.872,177.126,90.398,178.728,91.849
		L178.728,91.849z M177.071,97.54h-11.019v10.245c0,0.573-0.112,1.125-0.361,1.666c-0.23,0.519-0.563,0.991-0.979,1.382
		c-0.37,0.344-0.781,0.626-1.254,0.826c-0.448,0.203-0.936,0.306-1.441,0.317h-3.928l-1.557-3.517h3.992
		c0.316-0.015,0.558-0.129,0.736-0.347c0.197-0.238,0.292-0.527,0.292-0.892V97.54h-11.541v-3.57h27.059V97.54L177.071,97.54z
		 M158.812,99.867h-4.95c-0.559,1.313-1.217,2.604-1.967,3.868c-0.764,1.255-1.656,2.479-2.677,3.646
		c-1.019,1.182-2.193,2.305-3.542,3.348h6.422c1.008-1.195,1.939-2.364,2.757-3.508c0.786-1.137,1.534-2.302,2.181-3.5
		C157.678,102.521,158.279,101.242,158.812,99.867L158.812,99.867z M168.217,85.902c-0.857-1.469-1.684-2.976-2.462-4.49
		c-0.769-1.534-1.515-3.063-2.237-4.613c-0.654,1.518-1.361,3.041-2.156,4.55c-0.787,1.506-1.646,3.03-2.55,4.554H168.217
		L168.217,85.902z M160.206,73.384c0.032-0.137,0.011-0.238-0.063-0.327c-0.056-0.093-0.129-0.135-0.248-0.135h-4.334
		c-0.09,0.234-0.188,0.523-0.314,0.819c-0.113,0.289-0.235,0.589-0.362,0.878c-0.12,0.293-0.249,0.55-0.356,0.79h2.418
		c0.111,0.488,0.27,1.014,0.465,1.559c0.203,0.557,0.411,1.054,0.627,1.538c0.471-0.899,0.888-1.785,1.262-2.639
		C159.674,75.013,159.971,74.18,160.206,73.384L160.206,73.384z M227.654,91.595v-2.28c0-0.725-0.082-1.348-0.258-1.875
		c-0.188-0.528-0.448-0.971-0.826-1.335c-0.383-0.376-0.866-0.671-1.447-0.868c-0.592-0.186-1.232-0.292-1.97-0.31v-8.185
		c0-0.615-0.078-1.195-0.254-1.729c-0.182-0.535-0.433-1.003-0.763-1.42c-0.335-0.396-0.728-0.704-1.207-0.912
		c-0.486-0.222-1.059-0.332-1.699-0.332h-7.502c0.132-0.276,0.275-0.608,0.425-0.999c0.15-0.399,0.254-0.774,0.355-1.122h14.113
		v-2.946h-31.447v2.946h12.722c-0.034,0.18-0.099,0.404-0.191,0.666c-0.083,0.286-0.181,0.542-0.289,0.812
		c-0.099,0.266-0.214,0.475-0.301,0.644h-4.49c-0.701,0-1.333,0.089-1.893,0.26c-0.562,0.18-1.041,0.437-1.415,0.775
		c-0.421,0.357-0.734,0.816-0.954,1.362c-0.231,0.559-0.344,1.206-0.344,1.947v8.424c-0.617,0.035-1.188,0.116-1.675,0.26
		c-0.493,0.151-0.939,0.369-1.328,0.673c-0.464,0.341-0.821,0.801-1.072,1.367c-0.25,0.58-0.368,1.275-0.368,2.103v2.284h4.443
		v-2.382c0-0.244,0.041-0.458,0.119-0.668c0.09-0.203,0.2-0.389,0.385-0.507c0.15-0.148,0.373-0.228,0.637-0.228h23.265
		c0.256,0,0.427,0.088,0.596,0.243c0.162,0.158,0.247,0.351,0.247,0.59v2.744H227.654L227.654,91.595z M226.057,96.452h-5.324
		c-0.836-1.051-1.571-2.166-2.228-3.292c-0.649-1.158-1.184-2.335-1.618-3.586h4.569c0.481,1.231,1.131,2.425,1.926,3.555
		C224.188,94.272,225.098,95.359,226.057,96.452L226.057,96.452z M216.024,92.166h-4.611c-0.179-0.344-0.33-0.707-0.493-1.1
		c-0.156-0.375-0.306-0.765-0.432-1.149c-0.149-0.379-0.266-0.71-0.361-1.016h4.604c0.066,0.306,0.159,0.637,0.289,1.016
		c0.116,0.385,0.278,0.774,0.438,1.149C215.629,91.459,215.808,91.822,216.024,92.166L216.024,92.166z M217.896,93.296l-1.367,2.795
		h-8.526c-0.417,0-0.818-0.088-1.181-0.249c-0.368-0.17-0.717-0.396-0.996-0.683c-0.282-0.31-0.507-0.68-0.683-1.065
		c-0.156-0.398-0.231-0.827-0.247-1.255v-3.681h4.297v2.842c0.006,0.397,0.12,0.712,0.367,0.947
		c0.222,0.233,0.505,0.348,0.818,0.348H217.896L217.896,93.296z M204.066,89.879c-0.373,0.99-0.758,1.912-1.186,2.756
		c-0.421,0.847-0.836,1.599-1.245,2.256c-0.399,0.663-0.756,1.189-1.086,1.615h-4.813c0.861-1.005,1.615-2.061,2.271-3.177
		c0.648-1.107,1.165-2.263,1.568-3.45H204.066L204.066,89.879z M228.79,111.917c-1.002-0.304-2.066-0.653-3.254-1.04
		c-1.177-0.382-2.383-0.803-3.624-1.237c-1.235-0.446-2.491-0.913-3.716-1.375c-1.23-0.49-2.403-0.979-3.518-1.471
		c0.727-0.459,1.462-0.944,2.208-1.44c0.742-0.5,1.469-1.013,2.168-1.554c0.684-0.535,1.34-1.088,1.933-1.656
		c0.39-0.399,0.618-0.823,0.722-1.292c0.084-0.475,0.027-0.93-0.159-1.34c-0.173-0.45-0.479-0.836-0.904-1.106
		c-0.4-0.298-0.917-0.442-1.518-0.452h-11.596c0.146-0.14,0.281-0.323,0.449-0.544c0.157-0.229,0.285-0.428,0.327-0.596h-5.428
		c-0.922,1.141-1.908,2.206-2.973,3.217c-1.045,1.006-2.146,1.953-3.292,2.832c-1.12,0.887-2.263,1.716-3.413,2.492h6.729
		c0.145-0.104,0.318-0.251,0.54-0.422c0.218-0.176,0.422-0.366,0.669-0.559c0.227-0.184,0.414-0.37,0.601-0.523
		c0.378,0.355,0.817,0.728,1.319,1.13c0.518,0.403,1.035,0.765,1.539,1.122c0.515,0.351,0.964,0.64,1.334,0.857
		c-1.122,0.578-2.405,1.172-3.794,1.744c-1.405,0.608-2.854,1.177-4.351,1.738c-1.489,0.548-2.946,1.08-4.372,1.585h11.173
		c0.37-0.175,0.807-0.381,1.299-0.624c0.496-0.242,1.037-0.49,1.563-0.753c0.542-0.27,1.055-0.526,1.542-0.77
		c0.49-0.24,0.93-0.469,1.289-0.648c0.934,0.5,1.92,0.966,2.963,1.438c1.033,0.467,2.052,0.881,3.024,1.247H228.79L228.79,111.917z
		 M194.035,66.868c-0.072,1.022-0.193,2.131-0.374,3.333c-0.189,1.195-0.416,2.439-0.676,3.713c-0.27,1.28-0.573,2.554-0.886,3.816
		c-0.317,1.283-0.624,2.491-0.967,3.67v30.729h-4.504V89.471h-3.718c1.838-3.449,3.268-7.066,4.334-10.857
		c1.07-3.787,1.81-7.698,2.239-11.745H194.035L194.035,66.868z M218.554,76.543h-15.929v-0.315c0-0.267,0.076-0.496,0.224-0.687
		c0.153-0.196,0.365-0.294,0.651-0.302h14.122c0.274,0.008,0.475,0.106,0.665,0.302c0.169,0.19,0.256,0.419,0.267,0.687V76.543
		L218.554,76.543z M218.554,80.724h-15.929v-1.497h15.929V80.724L218.554,80.724z M218.554,85.081h-15.929v-1.718h15.929V85.081
		L218.554,85.081z M215.916,101.056c-0.916,0.688-1.808,1.33-2.733,1.905c-0.914,0.592-1.849,1.155-2.804,1.717
		c-0.301-0.147-0.681-0.337-1.108-0.602c-0.42-0.265-0.869-0.556-1.332-0.864c-0.48-0.313-0.887-0.612-1.287-0.914H203.5
		c0.145-0.135,0.295-0.287,0.467-0.452c0.185-0.175,0.348-0.318,0.502-0.469c0.139-0.135,0.262-0.243,0.331-0.321H215.916
		L215.916,101.056z M278.909,90.404h-2.008c-0.346,0-0.619-0.097-0.824-0.276c-0.213-0.192-0.304-0.476-0.319-0.863V76.646
		c0-0.779-0.075-1.477-0.249-2.093c-0.174-0.618-0.453-1.147-0.834-1.578c-0.387-0.467-0.879-0.821-1.488-1.045
		c-0.615-0.243-1.326-0.362-2.185-0.362h-4.395v-4.807h-4.448v4.807h-4.303v3.315h4.303c0.018,0.355,0.018,0.77,0.018,1.201
		c0,0.421-0.018,0.859-0.048,1.293c-0.021,0.432-0.043,0.844-0.084,1.235c-0.205-0.233-0.404-0.483-0.6-0.733
		c-0.188-0.257-0.347-0.511-0.476-0.773h-4.15c0.736,1.209,1.497,2.399,2.294,3.575c0.809,1.167,1.635,2.322,2.509,3.462
		c-0.261,1.781-0.791,3.478-1.529,5.073c-0.732,1.606-1.719,3.096-2.953,4.486h5.799c0.311-0.577,0.633-1.169,0.914-1.808
		c0.294-0.631,0.564-1.276,0.814-1.907c0.246-0.632,0.486-1.242,0.702-1.812c0.224,0.243,0.456,0.475,0.705,0.695
		c0.233,0.222,0.474,0.391,0.679,0.49h4.456v0.939c0.011,0.461,0.095,0.901,0.269,1.312c0.188,0.385,0.42,0.729,0.702,1.014
		c0.359,0.363,0.717,0.634,1.138,0.805c0.404,0.187,0.779,0.272,1.14,0.272h3.425L278.909,90.404L278.909,90.404z M257.556,80.466
		l-1.399,3.159h-4.921c-0.523-0.001-1.019-0.088-1.468-0.239c-0.463-0.156-0.848-0.353-1.175-0.584v2.228h6.476v2.938h-6.476v2.49
		h7.711v3.099h-21.571v-3.099h9.108v-2.49h-7.762V85.03h7.762v-3.111h3.924c-0.063-0.222-0.141-0.488-0.208-0.777
		c-0.062-0.3-0.102-0.563-0.102-0.77v-2.649h-3.25c-0.392,1.128-0.926,2.18-1.63,3.164c-0.687,1-1.53,1.884-2.511,2.637h-6.621
		c0.801-0.417,1.578-0.919,2.396-1.487c0.794-0.592,1.521-1.228,2.166-1.956c0.657-0.723,1.146-1.512,1.487-2.357h-5.229V74.78
		h9.468v-2.54h-7.958v-3.002h7.958v-2.475h4.604v2.475h6.524v3.002h-6.524v2.54h8.178v2.944h-4.598v1.757
		c0,0.347,0.069,0.595,0.229,0.741c0.157,0.17,0.388,0.244,0.685,0.244H257.556L257.556,80.466z M276.127,107.524v-6.058
		c0-0.549-0.117-1.09-0.334-1.614c-0.212-0.532-0.536-1.011-0.914-1.428c-0.394-0.461-0.868-0.794-1.41-1.059
		c-0.551-0.259-1.133-0.385-1.804-0.385h-15.776c0.061-0.333,0.101-0.71,0.127-1.159c0.024-0.438,0.033-0.884,0.033-1.341h-4.651
		c0,0.342-0.027,0.757-0.065,1.215c-0.039,0.441-0.097,0.874-0.151,1.285h-16.602v3.354h16.028c-0.646,1.495-1.52,2.831-2.64,4.007
		c-1.12,1.16-2.42,2.213-3.882,3.123c-1.467,0.9-3.059,1.729-4.757,2.441c-1.708,0.729-3.452,1.382-5.265,1.968h9.992
		c1.208-0.471,2.423-1.069,3.646-1.817c1.204-0.759,2.33-1.633,3.398-2.632c1.074-1.001,1.989-2.095,2.744-3.3
		c0.762-1.187,1.314-2.456,1.64-3.79h14.323c0.47,0,0.827,0.135,1.07,0.407c0.253,0.271,0.386,0.597,0.386,0.994v5.321
		c-0.021,0.443-0.169,0.792-0.441,1.056c-0.289,0.252-0.646,0.386-1.066,0.395h-7.597l1.542,3.366h8.428
		c0.566-0.012,1.09-0.148,1.601-0.407c0.522-0.258,0.95-0.621,1.358-1.101c0.319-0.385,0.573-0.815,0.748-1.296
		C276.026,108.588,276.127,108.071,276.127,107.524L276.127,107.524z M271.209,87.869c-0.624-0.493-1.249-1.014-1.844-1.553
		c-0.604-0.55-1.166-1.096-1.676-1.635c-0.504-0.554-0.942-1.046-1.291-1.521c0.082-0.92,0.149-1.872,0.209-2.841
		c0.044-0.961,0.077-1.912,0.092-2.842c0.021-0.931,0.021-1.792,0-2.593h3.166c0.391,0.004,0.708,0.143,0.957,0.4
		c0.251,0.257,0.366,0.573,0.387,0.944V87.869z"/>
	<linearGradient id="SVGID_4_" gradientUnits="userSpaceOnUse" x1="13.125" y1="87.0186" x2="47.1523" y2="87.0186">
		<stop  offset="0" style="stop-color:#407CCA"/>
		<stop  offset="0.4158" style="stop-color:#407CCA"/>
		<stop  offset="1" style="stop-color:#8EBDE6"/>
	</linearGradient>
	<path fill="url(#SVGID_4_)" d="M14.322,67.292c1.983,0.039,3.327,0.059,4.031,0.059c0.873,0,2.173-0.021,3.902-0.059L21.04,90.215
		c-0.018,0.266-0.024,0.548-0.024,0.853c0,2.556,0.33,4.48,0.989,5.766c0.66,1.289,1.629,2.226,2.908,2.812
		c1.278,0.585,2.738,0.88,4.385,0.88c1.048,0,2.04-0.131,2.984-0.397c0.772-0.227,1.477-0.538,2.112-0.939
		c0.513-0.337,0.967-0.736,1.36-1.188c0.464-0.55,0.851-1.184,1.162-1.905c0.323-0.701,0.565-1.496,0.721-2.389
		c0.221-1.344,0.427-3.68,0.618-7.015l0.547-9.884c0.119-2.878,0.217-6.047,0.286-9.515c1.933,0.039,3.374,0.059,4.314,0.059
		l3.75-0.059l-0.799,13.69L45.84,91.862c-0.155,2.541-0.394,4.434-0.719,5.681c-0.276,1.041-0.659,2.008-1.158,2.896
		c-0.48,0.796-1.055,1.508-1.725,2.132c-0.856,0.814-1.86,1.516-3.006,2.101c-1.287,0.665-2.649,1.147-4.093,1.451
		c-1.987,0.416-4.034,0.622-6.145,0.622c-2.16,0-4.183-0.217-6.068-0.65c-1.616-0.383-3.091-0.967-4.439-1.763
		c-1.345-0.797-2.412-1.686-3.202-2.67c-0.632-0.795-1.141-1.789-1.519-2.982c-0.426-1.324-0.642-2.802-0.642-4.434
		c0-0.565,0.017-1.298,0.053-2.196c0.034-0.902,0.093-2.062,0.181-3.48l0.233-4.007c0.087-1.25,0.183-3.086,0.287-5.51l0.258-6.165
		C14.207,71.207,14.269,69.337,14.322,67.292z"/>
	<g>
		<linearGradient id="SVGID_5_" gradientUnits="userSpaceOnUse" x1="39.6445" y1="77.2573" x2="72.0834" y2="77.3925">
			<stop  offset="0" style="stop-color:#407CCA"/>
			<stop  offset="0.4158" style="stop-color:#407CCA"/>
			<stop  offset="1" style="stop-color:#8EBDE6"/>
		</linearGradient>
		<polygon fill="url(#SVGID_5_)" points="71.289,67.292 62.197,67.292 53.467,81.251 56.62,87.424 58.744,87.424 		"/>
	</g>
	<linearGradient id="SVGID_6_" gradientUnits="userSpaceOnUse" x1="39.6445" y1="77.0044" x2="72.084" y2="77.1396">
		<stop  offset="0" style="stop-color:#407CCA"/>
		<stop  offset="0.4158" style="stop-color:#407CCA"/>
		<stop  offset="1" style="stop-color:#8EBDE6"/>
	</linearGradient>
	<polygon fill="url(#SVGID_6_)" points="55.26,79.666 48.414,67.292 39.157,67.292 49.887,86.795 50.449,86.795 55.241,79.695 	"/>
	<linearGradient id="SVGID_7_" gradientUnits="userSpaceOnUse" x1="39.6187" y1="83.3491" x2="72.0592" y2="83.4843">
		<stop  offset="0" style="stop-color:#407CCA"/>
		<stop  offset="0.4158" style="stop-color:#407CCA"/>
		<stop  offset="1" style="stop-color:#8EBDE6"/>
	</linearGradient>
	<polygon fill="url(#SVGID_7_)" points="54.34,80.442 50.449,86.388 57.554,86.388 57.556,86.381 54.356,80.417 	"/>
	<g>
		<path fill="#656363" d="M13.8,109.048c0.189,0.004,0.315,0.007,0.38,0.007c0.083,0,0.207-0.003,0.369-0.007l-0.116,2.28
			c-0.003,0.026-0.003,0.056-0.003,0.085c0,0.256,0.032,0.445,0.094,0.572c0.062,0.131,0.154,0.221,0.273,0.284
			c0.121,0.058,0.26,0.086,0.413,0.086c0.098,0,0.193-0.014,0.282-0.04c0.073-0.023,0.138-0.053,0.2-0.094
			c0.048-0.033,0.089-0.074,0.128-0.118c0.041-0.052,0.08-0.12,0.107-0.189c0.03-0.069,0.053-0.15,0.068-0.237
			c0.022-0.136,0.04-0.365,0.057-0.699l0.055-0.983c0.011-0.288,0.018-0.603,0.025-0.946c0.183,0.004,0.318,0.007,0.406,0.007
			l0.352-0.007l-0.072,1.362l-0.05,1.083c-0.013,0.252-0.038,0.438-0.069,0.563c-0.023,0.104-0.06,0.201-0.106,0.29
			c-0.045,0.078-0.1,0.149-0.163,0.214c-0.083,0.077-0.175,0.149-0.285,0.206c-0.121,0.066-0.249,0.114-0.385,0.146
			c-0.186,0.041-0.381,0.062-0.577,0.062c-0.206,0-0.396-0.021-0.572-0.065c-0.152-0.037-0.291-0.096-0.417-0.175
			c-0.126-0.081-0.228-0.168-0.301-0.267c-0.063-0.078-0.107-0.178-0.145-0.296c-0.041-0.132-0.06-0.278-0.06-0.44
			c0-0.058,0.001-0.13,0.004-0.221c0.004-0.089,0.011-0.204,0.019-0.347l0.021-0.396c0.007-0.125,0.017-0.308,0.027-0.549
			l0.026-0.612C13.792,109.437,13.796,109.251,13.8,109.048z"/>
		<path fill="#656363" d="M17.389,112.907c0.033-0.342,0.055-0.719,0.07-1.137l0.059-1.386c0.017-0.5,0.026-0.946,0.026-1.337
			c0.187,0.004,0.347,0.007,0.476,0.007c0.095,0,0.238-0.003,0.422-0.007c0.186,0.371,0.435,0.853,0.757,1.453
			c0.321,0.595,0.582,1.091,0.779,1.482l0.088-2.62c0.002-0.064,0.004-0.17,0.004-0.315c0.15,0.004,0.265,0.007,0.341,0.007
			c0.034,0,0.144-0.003,0.342-0.007l-0.062,1.038l-0.076,1.772l-0.028,1.049c-0.169-0.005-0.309-0.007-0.429-0.007
			c-0.093,0-0.245,0.002-0.455,0.007c-0.079-0.168-0.14-0.294-0.184-0.375c-0.064-0.123-0.208-0.38-0.425-0.769
			c-0.143-0.256-0.319-0.585-0.532-0.982c-0.156-0.296-0.291-0.551-0.401-0.769c-0.013,0.304-0.032,0.87-0.061,1.696
			c-0.01,0.338-0.019,0.737-0.024,1.198c-0.152-0.005-0.263-0.007-0.332-0.007C17.694,112.9,17.576,112.902,17.389,112.907z"/>
		<path fill="#656363" d="M21.295,112.907c0.039-0.649,0.074-1.315,0.095-1.995c0.024-0.682,0.036-1.203,0.036-1.562l-0.005-0.303
			l0.407,0.007c0.024,0,0.145-0.003,0.372-0.007c-0.066,0.991-0.108,2.276-0.128,3.859l-0.354-0.007
			C21.657,112.9,21.517,112.902,21.295,112.907z"/>
		<path fill="#656363" d="M23.655,112.907l-0.09-0.357c-0.013-0.046-0.064-0.227-0.161-0.541l-0.469-1.559l-0.432-1.402
			c0.166,0.004,0.305,0.007,0.417,0.007c0.066,0,0.183-0.003,0.354-0.007l0.076,0.315c0.016,0.062,0.038,0.148,0.068,0.259
			l0.588,2.073c0.037,0.131,0.081,0.308,0.139,0.526l0.13-0.345c0.029-0.083,0.101-0.25,0.202-0.497l0.761-1.859
			c0.021-0.055,0.044-0.114,0.068-0.175c0.021-0.062,0.058-0.159,0.106-0.298c0.176,0.004,0.31,0.007,0.402,0.007
			c0.055,0,0.182-0.003,0.377-0.007l-0.207,0.454l-1.321,3.052l-0.141,0.354c-0.213-0.005-0.349-0.007-0.423-0.007
			C24.036,112.9,23.889,112.902,23.655,112.907z"/>
		<path fill="#656363" d="M26.269,112.907l0.07-1.082l0.055-1.254l0.029-1.139v-0.385c0.398,0.004,0.813,0.007,1.245,0.007
			l0.471-0.003l0.696-0.004l-0.029,0.61l-0.231-0.014c-0.06-0.004-0.149-0.005-0.259-0.009s-0.227-0.004-0.342-0.004
			c-0.251,0-0.414,0-0.49,0.004c-0.069,0-0.182,0.004-0.331,0.009l-0.04,1.002c0.222,0.007,0.444,0.011,0.668,0.011
			c0.156,0,0.418-0.008,0.786-0.02c-0.014,0.175-0.024,0.379-0.034,0.619c-0.433-0.009-0.677-0.011-0.742-0.011
			c-0.188,0-0.426,0.006-0.71,0.02l-0.039,1.055l0.267,0.006c0.077,0,0.253-0.006,0.532-0.01l0.525-0.008l0.353-0.023
			c-0.017,0.22-0.027,0.427-0.034,0.622c-0.422-0.005-0.8-0.007-1.134-0.007l-0.8,0.002L26.269,112.907z"/>
		<path fill="#656363" d="M29.296,112.907c0.049-0.563,0.084-1.208,0.111-1.938c0.024-0.73,0.037-1.369,0.037-1.922
			c0.192,0.004,0.355,0.007,0.484,0.007c0.143,0,0.278-0.003,0.413-0.009c0.134-0.007,0.277-0.008,0.428-0.008
			c0.187,0,0.353,0.01,0.5,0.036c0.15,0.021,0.281,0.079,0.395,0.168c0.114,0.088,0.2,0.196,0.255,0.323
			c0.054,0.126,0.084,0.272,0.084,0.441c0,0.104-0.013,0.204-0.033,0.3c-0.021,0.097-0.052,0.185-0.093,0.269
			c-0.042,0.086-0.089,0.157-0.146,0.221c-0.056,0.064-0.113,0.116-0.17,0.151c-0.055,0.037-0.117,0.067-0.189,0.092
			c-0.07,0.027-0.168,0.063-0.285,0.098l0.165,0.371c0.05,0.12,0.151,0.334,0.299,0.64l0.246,0.501
			c0.014,0.028,0.053,0.112,0.117,0.259c-0.198-0.005-0.327-0.007-0.39-0.007c-0.079,0-0.214,0.002-0.411,0.007l-0.27-0.753
			c-0.047-0.115-0.104-0.251-0.167-0.407l-0.293-0.687c-0.028-0.063-0.069-0.16-0.12-0.287c0.107,0.021,0.205,0.032,0.294,0.032
			c0.139,0,0.267-0.025,0.38-0.079c0.115-0.052,0.203-0.135,0.265-0.242c0.063-0.112,0.093-0.233,0.093-0.361
			c0-0.08-0.015-0.153-0.041-0.223c-0.027-0.066-0.072-0.124-0.136-0.173c-0.063-0.046-0.137-0.076-0.225-0.088
			c-0.084-0.014-0.175-0.02-0.261-0.02c-0.046,0-0.114,0-0.198,0.002c-0.084,0-0.187,0.002-0.311,0.002l-0.042,1.164l-0.046,2.119
			l-0.375-0.007C29.602,112.9,29.482,112.902,29.296,112.907z"/>
		<path fill="#656363" d="M32.343,112.826c-0.011-0.29-0.027-0.524-0.049-0.701c0.316,0.164,0.604,0.249,0.861,0.249
			c0.104,0,0.201-0.019,0.292-0.055c0.087-0.036,0.155-0.088,0.199-0.153c0.041-0.068,0.063-0.146,0.063-0.227
			c0-0.063-0.01-0.12-0.032-0.173c-0.029-0.071-0.081-0.143-0.154-0.218c-0.093-0.103-0.255-0.274-0.493-0.511
			c-0.113-0.114-0.191-0.199-0.236-0.246c-0.095-0.107-0.168-0.206-0.221-0.289c-0.051-0.089-0.086-0.171-0.111-0.257
			c-0.024-0.085-0.034-0.176-0.034-0.271c0-0.178,0.042-0.344,0.127-0.499c0.084-0.156,0.21-0.279,0.379-0.365
			c0.168-0.089,0.38-0.131,0.638-0.131c0.232,0,0.495,0.034,0.779,0.099c0.009,0.196,0.025,0.421,0.049,0.672
			c-0.251-0.111-0.481-0.167-0.696-0.167c-0.155,0-0.285,0.04-0.388,0.122c-0.1,0.085-0.151,0.184-0.151,0.295
			c0,0.028,0.003,0.06,0.011,0.095c0.007,0.031,0.018,0.063,0.034,0.097c0.012,0.029,0.037,0.072,0.075,0.12
			c0.035,0.049,0.085,0.108,0.155,0.176c0.067,0.066,0.13,0.121,0.181,0.161l0.297,0.316c0.074,0.073,0.143,0.146,0.2,0.217
			c0.062,0.068,0.115,0.136,0.156,0.201c0.042,0.063,0.077,0.124,0.1,0.182c0.024,0.059,0.042,0.118,0.053,0.182
			c0.015,0.059,0.021,0.124,0.021,0.192c0,0.158-0.033,0.308-0.097,0.447c-0.062,0.142-0.152,0.256-0.27,0.347
			c-0.118,0.093-0.247,0.152-0.385,0.188c-0.144,0.032-0.29,0.052-0.449,0.052c-0.101,0-0.226-0.011-0.359-0.031
			C32.75,112.922,32.568,112.883,32.343,112.826z"/>
		<path fill="#656363" d="M34.534,112.907c0.168-0.347,0.364-0.776,0.592-1.287l0.636-1.428c0.199-0.441,0.364-0.821,0.495-1.145
			c0.208,0.004,0.359,0.007,0.444,0.007c0.154,0,0.302-0.003,0.452-0.007l0.346,1.155l0.752,2.392l0.104,0.313l-0.364-0.007
			c-0.082,0-0.226,0.002-0.424,0.007c-0.037-0.168-0.099-0.396-0.182-0.679c-0.083-0.286-0.154-0.516-0.212-0.692h-1.275
			c-0.186,0.447-0.373,0.905-0.552,1.371l-0.393-0.007C34.879,112.9,34.739,112.902,34.534,112.907z M36.114,110.948h0.926
			l-0.38-1.309l-0.195,0.476L36.114,110.948z"/>
		<path fill="#656363" d="M38.688,112.907c0.049-0.569,0.087-1.2,0.117-1.896c0.029-0.696,0.044-1.35,0.047-1.964
			c0.167,0.004,0.306,0.007,0.414,0.007c0.076,0,0.192-0.003,0.359-0.007c-0.024,0.341-0.041,0.727-0.062,1.159l-0.049,1.134
			c-0.015,0.324-0.024,0.645-0.033,0.968l0.418,0.002c0.391,0,0.649,0,0.77-0.002c0.124-0.004,0.242-0.008,0.365-0.017
			c-0.016,0.187-0.029,0.39-0.042,0.615c-0.421-0.005-0.786-0.007-1.087-0.007l-0.761,0.002L38.688,112.907z"/>
		<path fill="#656363" d="M42.606,112.907l0.067-1.082l0.05-1.254l0.033-1.139v-0.385c0.399,0.004,0.815,0.007,1.248,0.007
			l0.465-0.003l0.699-0.004l-0.028,0.61l-0.231-0.014c-0.062-0.004-0.151-0.005-0.262-0.009c-0.111-0.004-0.226-0.004-0.342-0.004
			c-0.25,0-0.414,0-0.487,0.004c-0.074,0-0.186,0.004-0.335,0.009l-0.037,1.002c0.219,0.007,0.445,0.011,0.668,0.011
			c0.155,0,0.417-0.008,0.786-0.02c-0.016,0.175-0.024,0.379-0.037,0.619c-0.43-0.009-0.676-0.011-0.739-0.011
			c-0.191,0-0.426,0.006-0.713,0.02l-0.039,1.055l0.266,0.006c0.077,0,0.255-0.006,0.535-0.01l0.523-0.008l0.353-0.023
			c-0.016,0.22-0.028,0.427-0.033,0.622c-0.421-0.005-0.8-0.007-1.138-0.007l-0.798,0.002L42.606,112.907z"/>
		<path fill="#656363" d="M45.186,112.907l0.18-0.259c0.058-0.083,0.154-0.22,0.288-0.423l0.659-0.983l0.207-0.327l-0.298-0.569
			l-0.717-1.298c0.156,0.004,0.309,0.007,0.453,0.007c0.118,0,0.25-0.003,0.403-0.007c0.085,0.222,0.187,0.454,0.298,0.695
			c0.112,0.236,0.198,0.435,0.257,0.587c0.101-0.16,0.241-0.368,0.427-0.627c0.185-0.261,0.329-0.478,0.431-0.655
			c0.131,0.004,0.267,0.007,0.402,0.007c0.088,0,0.222-0.003,0.4-0.007c-0.127,0.196-0.311,0.468-0.547,0.813
			c-0.233,0.346-0.457,0.686-0.667,1.019c0.218,0.436,0.587,1.106,1.104,2.028c-0.187-0.005-0.322-0.007-0.412-0.007
			c-0.138,0-0.285,0.002-0.446,0.007c-0.089-0.187-0.21-0.411-0.36-0.675c-0.153-0.265-0.272-0.479-0.362-0.65
			c-0.089,0.149-0.224,0.353-0.405,0.612c-0.182,0.258-0.34,0.495-0.473,0.713c-0.176-0.005-0.31-0.007-0.403-0.007
			C45.505,112.9,45.362,112.902,45.186,112.907z"/>
		<path fill="#656363" d="M51.517,112.202c-0.037,0.219-0.069,0.442-0.093,0.67c-0.184,0.039-0.353,0.066-0.502,0.081
			c-0.157,0.013-0.289,0.021-0.397,0.021c-0.243,0-0.474-0.039-0.694-0.118c-0.218-0.079-0.419-0.203-0.596-0.373
			c-0.176-0.174-0.303-0.379-0.384-0.624c-0.078-0.24-0.118-0.508-0.118-0.793c0-0.315,0.047-0.605,0.144-0.871
			c0.095-0.265,0.23-0.49,0.409-0.672c0.181-0.183,0.391-0.318,0.633-0.407c0.247-0.09,0.5-0.135,0.765-0.135
			c0.26,0,0.547,0.034,0.856,0.104c0.006,0.167,0.009,0.287,0.016,0.356l0.017,0.303c-0.183-0.056-0.333-0.096-0.456-0.117
			c-0.12-0.02-0.233-0.031-0.344-0.031c-0.172,0-0.34,0.031-0.5,0.093c-0.158,0.062-0.301,0.161-0.422,0.292
			c-0.12,0.136-0.214,0.295-0.278,0.485c-0.068,0.19-0.099,0.387-0.099,0.594c0,0.244,0.04,0.464,0.121,0.657
			c0.081,0.194,0.209,0.352,0.388,0.473c0.179,0.12,0.401,0.18,0.663,0.18C50.884,112.368,51.179,112.311,51.517,112.202z"/>
		<path fill="#656363" d="M52.036,112.907l0.056-1.015c0.032-0.556,0.052-1.069,0.065-1.542c0.012-0.476,0.021-0.806,0.021-0.991
			l-0.001-0.312c0.187,0.004,0.323,0.007,0.401,0.007c0.06,0,0.183-0.003,0.367-0.007l-0.065,1.276l-0.007,0.293h1.648l0.031-0.765
			c0.007-0.262,0.009-0.436,0.009-0.518v-0.287l0.404,0.007c0.035,0,0.156-0.003,0.36-0.007l-0.077,1.54l-0.034,1.143l-0.008,0.67
			c-0.005,0.276-0.005,0.443-0.005,0.507l-0.376-0.007c-0.047,0-0.182,0.002-0.403,0.007c0.042-0.536,0.067-1.095,0.08-1.684h-1.653
			l-0.035,1.041l-0.009,0.643l-0.396-0.007C52.36,112.9,52.237,112.902,52.036,112.907z"/>
		<path fill="#656363" d="M55.442,112.907c0.168-0.347,0.365-0.776,0.591-1.287l0.635-1.428c0.202-0.441,0.367-0.821,0.497-1.145
			c0.208,0.004,0.354,0.007,0.444,0.007c0.153,0,0.302-0.003,0.451-0.007l0.346,1.155l0.752,2.392l0.104,0.313l-0.364-0.007
			c-0.082,0-0.223,0.002-0.423,0.007c-0.037-0.168-0.097-0.396-0.181-0.679c-0.085-0.286-0.157-0.516-0.215-0.692h-1.273
			c-0.186,0.447-0.37,0.905-0.553,1.371l-0.392-0.007C55.787,112.9,55.646,112.902,55.442,112.907z M57.023,110.948h0.927
			l-0.381-1.309l-0.197,0.476L57.023,110.948z"/>
		<path fill="#656363" d="M59.611,112.907c0.033-0.342,0.055-0.719,0.069-1.137l0.059-1.386c0.016-0.5,0.026-0.946,0.026-1.337
			c0.189,0.004,0.345,0.007,0.479,0.007c0.094,0,0.238-0.003,0.424-0.007c0.178,0.371,0.432,0.853,0.752,1.453
			c0.322,0.595,0.582,1.091,0.78,1.482l0.09-2.62c0-0.064,0.001-0.17,0.001-0.315c0.151,0.004,0.266,0.007,0.344,0.007
			c0.03,0,0.143-0.003,0.341-0.007l-0.065,1.038l-0.073,1.772l-0.027,1.049c-0.167-0.005-0.312-0.007-0.431-0.007
			c-0.09,0-0.243,0.002-0.454,0.007c-0.082-0.168-0.141-0.294-0.184-0.375c-0.065-0.123-0.208-0.38-0.424-0.769
			c-0.141-0.256-0.319-0.585-0.53-0.982c-0.158-0.296-0.291-0.551-0.402-0.769c-0.013,0.304-0.033,0.87-0.061,1.696
			c-0.011,0.338-0.022,0.737-0.026,1.198c-0.15-0.005-0.261-0.007-0.33-0.007C59.915,112.9,59.797,112.902,59.611,112.907z"/>
		<path fill="#656363" d="M65.419,110.701c0.223,0.005,0.435,0.008,0.639,0.008c0.267,0,0.485-0.003,0.663-0.008
			c-0.04,0.632-0.071,1.331-0.089,2.104c-0.267,0.062-0.51,0.105-0.727,0.13c-0.216,0.026-0.4,0.038-0.551,0.038
			c-0.286,0-0.545-0.031-0.789-0.105c-0.248-0.066-0.451-0.182-0.618-0.338c-0.167-0.159-0.295-0.363-0.38-0.62
			c-0.091-0.252-0.136-0.522-0.136-0.808c0-0.242,0.036-0.48,0.102-0.703c0.063-0.226,0.162-0.434,0.289-0.62
			c0.127-0.19,0.282-0.347,0.464-0.475c0.179-0.124,0.376-0.21,0.58-0.257c0.203-0.044,0.419-0.067,0.646-0.067
			c0.314,0,0.676,0.049,1.081,0.148c0,0.213,0.01,0.437,0.025,0.671c-0.379-0.148-0.727-0.225-1.033-0.225
			c-0.198,0-0.385,0.034-0.559,0.1c-0.179,0.068-0.336,0.169-0.459,0.306c-0.129,0.14-0.229,0.312-0.293,0.517
			c-0.066,0.204-0.101,0.415-0.101,0.636c0,0.242,0.04,0.458,0.115,0.649c0.077,0.193,0.205,0.341,0.387,0.446
			c0.179,0.105,0.385,0.158,0.621,0.158c0.085,0,0.187-0.011,0.302-0.026c0.116-0.019,0.238-0.052,0.364-0.091l0.04-0.995
			l-0.191-0.003c-0.11,0-0.248,0.003-0.411,0.007C65.411,111.026,65.419,110.835,65.419,110.701z"/>
		<path fill="#656363" d="M67.29,112.907l0.072-1.082l0.049-1.254l0.031-1.139v-0.385c0.4,0.004,0.815,0.007,1.249,0.007
			l0.462-0.003l0.699-0.004l-0.029,0.61l-0.226-0.014c-0.065-0.004-0.15-0.005-0.261-0.009c-0.113-0.004-0.227-0.004-0.342-0.004
			c-0.254,0-0.415,0-0.49,0.004c-0.075,0-0.182,0.004-0.332,0.009l-0.037,1.002c0.219,0.007,0.441,0.011,0.669,0.011
			c0.152,0,0.415-0.008,0.785-0.02c-0.019,0.175-0.025,0.379-0.036,0.619c-0.434-0.009-0.677-0.011-0.742-0.011
			c-0.191,0-0.423,0.006-0.712,0.02l-0.038,1.055l0.268,0.006c0.073,0,0.253-0.006,0.529-0.01l0.526-0.008l0.355-0.023
			c-0.021,0.22-0.028,0.427-0.038,0.622c-0.419-0.005-0.797-0.007-1.135-0.007l-0.797,0.002L67.29,112.907z"/>
	</g>
</g>
<path fill-rule="evenodd" clip-rule="evenodd" fill="#407CCA" d="M46.206,13.79c0,3.199,0,10.5,0,10.5
	c0,1.37,0.718,3.467,1.637,5.016c0.916,1.555,3.834,5.106,4.931,6.573c0.813,1.18,1.371,2.829,1.371,3.923v8.393h-4.56V36.961
	H38.357V25.746h5.567v-5.649H32.699v22.536h11.226v11.229h10.853c2.74,0,4.934-2.191,4.934-4.932V38.433
	c0-1.375-0.744-3.466-1.652-5.02c-0.904-1.552-3.83-5.113-4.925-6.569c-0.818-1.185-1.365-2.832-1.365-3.93v-8.393h4.554v11.225
	h11.243v11.215h-5.568v5.672H73.22V20.097H61.898V8.869H51.126C48.401,8.869,46.206,10.959,46.206,13.79z"/>
<g>
	<path fill-rule="evenodd" clip-rule="evenodd" fill="#686564" d="M113.799,37.223c0,0.635-0.499,1.135-1.025,1.135h-4.542v3.801
		h7.087c2.148,0,3.923-1.902,3.923-4.049V16.72h-11.01v3.802h5.567V37.223L113.799,37.223z M108.232,38.358v3.801h-5.571v9.232
		h-5.438v-9.232h-5.57v-3.801h5.57V20.522h-5.57V16.72h5.57v-5.185h5.438v5.185h5.571v3.802h-5.571v17.836H108.232L108.232,38.358
		L108.232,38.358z M91.653,16.72h-11.13v21.39c0,2.147,1.769,4.049,4.044,4.049h7.085v-3.801h-4.55c-0.637,0-1.146-0.5-1.146-1.135
		V20.522h5.696V16.72L91.653,16.72z"/>
	<path fill-rule="evenodd" clip-rule="evenodd" fill="#686564" d="M133.77,14.949h1.01c0.379,2.157,3.291,6.069,5.823,7.596h-6.833
		v28.846h8.092v-3.162h-5.571V33.555h4.811v-3.171h-4.811V25.83h4.811v-3.033c0.252,0.247,0.509,0.247,0.76,0.374v-3.285
		c-1.259-1.141-2.903-6.705-2.656-8.351h-5.436V14.949L133.77,14.949z M126.928,22.545h6.842v28.846h-8.112v-3.162h5.584V33.555
		h-4.806v-3.171h4.806V25.83h-4.806v-2.916c-0.261,0.13-0.512,0.13-0.778,0.257v-3.285c1.271-1.141,2.914-6.705,2.667-8.351h5.445
		v3.415h-1.017C132.37,17.106,129.462,21.019,126.928,22.545L126.928,22.545z"/>
	<path fill-rule="evenodd" clip-rule="evenodd" fill="#686564" d="M137.185,46.337c2.4-2.029,4.168-6.581,3.916-10.511l-2.914,1.261
		c0.508,1.78-0.371,5.321-1.002,6.588V46.337z"/>
	<path fill-rule="evenodd" clip-rule="evenodd" fill="#686564" d="M126.436,35.826c-0.394,3.93,1.377,8.482,3.786,10.511v-2.662
		c-0.626-1.267-1.385-4.808-0.885-6.588L126.436,35.826z"/>
	<polygon fill-rule="evenodd" clip-rule="evenodd" fill="#686564" points="142.62,11.535 142.62,23.431 147.562,23.431 
		147.562,14.699 160.962,14.699 160.962,23.431 165.9,23.431 165.9,11.535 	"/>
	<path fill-rule="evenodd" clip-rule="evenodd" fill="#686564" d="M159.703,17.224h-4.047c0.121,1.021-0.379,7.854-1.394,8.354
		c-1.01-0.501-1.387-7.333-1.387-8.354h-4.043c-0.136,1.021,0.378,7.337,1.002,8.354h-7.337v3.29h9.114v19.361h-3.681V30.896h-5.056
		v16.567c0,2.159,2.277,3.928,4.43,3.928h14.047c2.271,0,4.047-1.769,4.047-3.928V30.896h-5.061v17.333h-3.787V28.868h9.217v-3.29
		h-7.076C159.315,24.561,159.832,18.246,159.703,17.224z"/>
	<path fill-rule="evenodd" clip-rule="evenodd" fill="#686564" d="M242.149,30.511c1.525,0,2.152,0.385,2.788,1.143h-2.788v2.66
		h3.425v-1.769c0.756,0.755,1.768,1.644,3.797,2.142v-2.395c-1.396-0.638-2.029-1.271-2.907-2.407
		c0.878-0.758,1.378-1.777,1.378-2.921v-5.559h-5.692v2.025h1.385v1.522h-1.385v2.011h1.385c0,0.764-0.615,1.4-1.385,1.529V30.511
		L242.149,30.511z M242.149,20.141L242.149,20.141v-2.027h6.722v2.027H242.149L242.149,20.141z M239.375,31.654h2.774v2.66h-9.106
		v-2.66h2.034v-1.143h-2.034v-2.018h2.034v-1.529h-2.034v-2.011h2.034v-1.522h-2.034v-2.025h2.034v-1.264h-2.034v-2.027h2.034
		v-1.523h4.298v1.523h2.774v2.027h-2.774v1.264h2.774v2.025h-2.774v1.522h2.774v2.011h-2.774v1.529h2.657h0.117v2.018
		c-0.117,0-0.244,0-0.37,0h-2.404V31.654L239.375,31.654L239.375,31.654z M233.043,18.114h-7.461v2.027h7.461V18.114L233.043,18.114
		L233.043,18.114z M233.043,21.405h-6.451v5.559c0,1.904,1.643,3.547,3.54,3.547h2.911v-2.018h-0.501
		c-0.889,0-1.648-0.765-1.648-1.529h2.149v-2.011h-2.149v-1.522h2.149V21.405L233.043,21.405L233.043,21.405z M233.043,31.654
		h-7.461v2.66h7.461V31.654L233.043,31.654z"/>
	<path fill-rule="evenodd" clip-rule="evenodd" fill="#686564" d="M227.225,40.638c2.664,2.786,6.321,4.685,10.373,4.545v-2.399
		c-1.893,0-4.433-1.263-5.69-2.146H227.225z"/>
	<path fill-rule="evenodd" clip-rule="evenodd" fill="#686564" d="M247.086,35.323h-5.445v1.263h-15.684v2.655h15.684v3.297
		c0,0.625-0.507,1.138-1.131,1.138h-1.514v2.526h4.171c2.146,0,3.919-1.64,3.919-3.793V39.24h2.285v-2.655h-2.285V35.323z"/>
	<path fill-rule="evenodd" clip-rule="evenodd" fill="#686564" d="M251.271,47.094c0,0.63-0.137,1.136-0.76,1.136h-13.045v3.162
		h15.314c2.153,0,3.919-1.769,3.919-3.928V11.535h-19.233v3.165h13.805V47.094L251.271,47.094z M237.467,48.229v3.162h-15.305
		c-2.151,0-3.919-1.769-3.919-3.928V11.535h19.224v3.165h-13.789v32.395c0,0.63,0.129,1.136,0.637,1.136H237.467L237.467,48.229z"/>
	<path fill-rule="evenodd" clip-rule="evenodd" fill="#686564" d="M194.854,36.585h15.689v-3.542h-13.916v-2.023h13.916v-3.417
		h-13.916v-2.149h13.916v-3.414h-13.916v-2.032h13.916V16.47h-13.916v-4.936h-5.445v4.936h-5.686v3.539h5.686v2.032h-5.686v3.414
		h5.686v2.149h-5.686v3.417h5.686v2.023h-5.686v3.542h3.925v1.906h-3.925v4.292c0.118-0.246,0.244-0.496,0.379-0.759h3.546v4.058
		c0,1.263-1.15,2.404-2.407,2.404h-1.518v2.905h5.567c2.02,0,3.662-1.641,3.662-3.667v-5.7h3.67
		c1.271,3.042,5.952,6.961,13.413,9.367v-2.653c-2.275-1.394-6.833-4.43-7.337-6.714h8.221v-3.532h-17.839V36.585L194.854,36.585z
		 M185.497,16.47v3.539h-5.688v2.032h5.688v3.414h-5.688v2.149h5.688v3.417h-5.688v2.023h5.688v3.542h-7.226
		c-2.148,0-3.909-1.899-3.909-4.041V23.17c-0.64,0.131-1.266,0.384-2.027,0.509v-3.158c4.048-2.658,4.679-7.088,5.438-8.987h6.706
		c-0.512,1.268-1.012,3.041-2.145,4.936H185.497L185.497,16.47L185.497,16.47z M185.497,38.492v4.292
		c-1.777,2.912-6.329,6.337-13.162,8.608v-2.653c2.403-1.394,6.833-4.43,7.334-6.714h-8.219v-3.532H185.497L185.497,38.492
		L185.497,38.492z M185.497,48.486L185.497,48.486v2.905h-1.777v-2.905H185.497z"/>
</g>
</svg>
