<?xml version="1.0" encoding="utf-8"?>
<!-- Generator: Adobe Illustrator 16.0.0, SVG Export Plug-In . SVG Version: 6.00 Build 0)  -->
<!DOCTYPE svg PUBLIC "-//W3C//DTD SVG 1.1//EN" "http://www.w3.org/Graphics/SVG/1.1/DTD/svg11.dtd">
<svg version="1.1" id="圖層_1" xmlns="http://www.w3.org/2000/svg" xmlns:xlink="http://www.w3.org/1999/xlink" x="0px" y="0px"
	 width="400px" height="79px" viewBox="0 0 400 79" enable-background="new 0 0 400 79" xml:space="preserve">
<g>
	<linearGradient id="SVGID_1_" gradientUnits="userSpaceOnUse" x1="46.6641" y1="48.9863" x2="93.4272" y2="49.1812">
		<stop  offset="0" style="stop-color:#407CCA"/>
		<stop  offset="0.4158" style="stop-color:#407CCA"/>
		<stop  offset="1" style="stop-color:#8EBDE6"/>
	</linearGradient>
	<polygon fill="url(#SVGID_1_)" points="74.997,34.437 73.435,34.437 66.688,43.749 77.389,63.782 90.705,63.782 	"/>
	<linearGradient id="SVGID_2_" gradientUnits="userSpaceOnUse" x1="46.666" y1="48.5928" x2="93.4272" y2="48.7876">
		<stop  offset="0" style="stop-color:#407CCA"/>
		<stop  offset="0.4158" style="stop-color:#407CCA"/>
		<stop  offset="1" style="stop-color:#8EBDE6"/>
	</linearGradient>
	<polygon fill="url(#SVGID_2_)" points="63.515,34.437 61.58,34.437 40.274,62.792 53.971,62.792 68.528,43.439 68.058,42.589 	"/>
	<linearGradient id="SVGID_3_" gradientUnits="userSpaceOnUse" x1="46.707" y1="38.6611" x2="93.4718" y2="38.856">
		<stop  offset="0" style="stop-color:#407CCA"/>
		<stop  offset="0.4158" style="stop-color:#407CCA"/>
		<stop  offset="1" style="stop-color:#8EBDE6"/>
	</linearGradient>
	<polygon fill="url(#SVGID_3_)" points="61.473,33.77 66.265,42.815 66.765,43.749 73.907,33.77 	"/>
</g>
<path fill-rule="evenodd" clip-rule="evenodd" fill="#666464" stroke="#666464" stroke-width="0.15" stroke-miterlimit="10" d="
	M163.027,31.645v-5.212h-5.362c0.806-1.873,1.538-3.799,2.192-5.76c0.617-1.995,1.254-3.964,1.833-5.955h-6.341
	c-0.445,2.055-1.008,4.055-1.653,5.994c-0.655,1.955-1.398,3.848-2.219,5.721h-10.738v5.212H163.027L163.027,31.645z
	 M150.361,24.268h-6.195c-0.566-1.532-1.057-3.087-1.467-4.683c-0.436-1.61-0.817-3.221-1.13-4.868h5.875
	c0.378,1.647,0.78,3.257,1.258,4.868C149.171,21.18,149.728,22.736,150.361,24.268L150.361,24.268z M171.164,65.207
	c0,0.898-0.2,1.708-0.563,2.475c-0.407,0.747-0.92,1.398-1.608,1.916c-0.648,0.514-1.381,0.938-2.201,1.208
	c-0.853,0.284-1.696,0.432-2.569,0.432h-5.821l-2.536-5.291h7.161c0.45-0.009,0.849-0.18,1.168-0.481
	c0.305-0.341,0.467-0.679,0.467-1.09V14.431c0-0.578-0.186-1.068-0.551-1.431c-0.402-0.38-0.919-0.569-1.598-0.593h-21.549
	c-0.323,0-0.634,0.107-0.896,0.28c-0.277,0.188-0.49,0.414-0.664,0.676c-0.152,0.277-0.244,0.557-0.244,0.836v57.038h-6.329V12.635
	c0.01-0.771,0.168-1.464,0.511-2.11c0.323-0.636,0.731-1.214,1.279-1.693c0.569-0.527,1.221-0.941,1.951-1.26
	c0.695-0.289,1.425-0.451,2.143-0.451h25.726c1.065,0,2.016,0.171,2.871,0.527c0.895,0.343,1.59,0.846,2.198,1.476
	c0.515,0.555,0.947,1.249,1.212,2.04c0.28,0.801,0.441,1.675,0.441,2.677V65.207L171.164,65.207z M163.172,44.623v-5.212h-7.145
	c-0.277-0.63-0.542-1.303-0.789-2.036c-0.237-0.719-0.429-1.455-0.673-2.183c-0.188-0.75-0.395-1.456-0.539-2.131h-6.583
	c0.147,0.676,0.32,1.395,0.521,2.146c0.183,0.746,0.371,1.485,0.582,2.213c0.21,0.719,0.405,1.37,0.609,1.991h-8.27v5.289h3.646
	v9.764c0,0.932,0.169,1.796,0.478,2.541c0.334,0.771,0.758,1.413,1.3,1.934c0.526,0.484,1.135,0.868,1.796,1.144
	c0.651,0.274,1.349,0.424,2.1,0.424h10.373l2.086-5.216h-10.598c-0.314-0.006-0.59-0.18-0.85-0.463
	c-0.28-0.307-0.399-0.645-0.414-1.041v-9.165H163.172L163.172,44.623z M131.869,47.607c-0.682-2.217-1.267-4.436-1.756-6.699
	c-0.481-2.276-0.905-4.557-1.236-6.88h-6.043c0.103,0.867,0.234,1.796,0.386,2.822c0.137,0.996,0.305,2,0.469,2.943
	c0.137,0.95,0.29,1.814,0.417,2.516h-9.755l17.305-24.244h-7.7l-3.438,4.783h-6.244l12.44-17.146h-7.843l-10.804,15.287
	c-0.539,0.825-0.874,1.656-0.95,2.493c-0.089,0.832,0.015,1.59,0.35,2.285c0.308,0.639,0.801,1.151,1.494,1.543
	c0.704,0.405,1.575,0.594,2.616,0.615h5.434l-9.165,12.75c-0.56,0.825-0.836,1.653-0.907,2.441
	c-0.061,0.798,0.088,1.535,0.383,2.174c0.311,0.616,0.737,1.112,1.267,1.496c0.551,0.384,1.118,0.584,1.721,0.584h12.154
	l2.097-3.803c0.064,0.63,0.21,1.282,0.393,1.997c0.174,0.716,0.366,1.397,0.563,2.043H131.869L131.869,47.607z M132.085,66.4
	c-0.548-2.512-0.999-5.1-1.343-7.793c-0.329-2.7-0.599-5.371-0.822-8.016h-5.069c0.189,2.724,0.436,5.395,0.783,8.016
	c0.335,2.625,0.761,5.222,1.233,7.793H132.085L132.085,66.4z M124.626,71.237c-0.704-3.263-1.224-6.63-1.574-10.098
	c-0.365-3.48-0.544-7.006-0.587-10.549h-5.736c0.033,3.541,0.197,7.06,0.486,10.485c0.32,3.463,0.747,6.852,1.31,10.161H124.626
	L124.626,71.237z M114.549,50.591h-5.657c-0.085,2.354-0.219,4.718-0.38,7.06c-0.159,2.341-0.383,4.655-0.712,6.947
	c-0.332,2.253-0.771,4.481-1.377,6.639h6.193c0.59-3.324,1.068-6.718,1.391-10.183C114.351,57.595,114.519,54.101,114.549,50.591
	L114.549,50.591z M247.121,69.524c-0.782-1.011-1.563-2.146-2.353-3.41c-0.765-1.26-1.502-2.591-2.195-3.971
	c-0.73-1.378-1.368-2.782-1.934-4.204c-0.566-1.406-1.044-2.75-1.415-4.073h-6.717c0.435,1.766,0.971,3.534,1.677,5.349
	c0.661,1.811,1.422,3.605,2.269,5.345c0.829,1.76,1.702,3.407,2.618,4.963H247.121L247.121,69.524z M247.269,42.31h-9.031
	c-0.265-0.266-0.565-0.584-0.934-0.993c-0.317-0.387-0.659-0.847-0.966-1.266c-0.35-0.445-0.609-0.865-0.853-1.24h-20.889
	c-0.414,0.6-0.916,1.218-1.458,1.863c-0.543,0.621-1.103,1.178-1.602,1.635h-8.415c0.174,0.806,0.347,1.702,0.526,2.672
	c0.173,0.981,0.28,1.979,0.372,2.972c0.085,0.989,0.135,1.93,0.085,2.783c-0.127,1.193-0.344,2.237-0.706,3.151
	c-0.337,0.894-0.85,1.662-1.458,2.285c-0.676,0.677-1.517,1.185-2.49,1.514c-0.988,0.334-2.098,0.502-3.338,0.502h-3.732
	l-2.457-5.216h5.008c0.435,0,0.849-0.091,1.248-0.249c0.39-0.162,0.67-0.399,0.912-0.734c0.243-0.353,0.364-0.758,0.364-1.254
	c0.088-2.521-0.103-4.915-0.558-7.17c-0.483-2.226-1.166-4.357-2.064-6.406c-0.9-2.052-1.951-4.033-3.202-5.958
	c1.007-2.724,1.917-5.483,2.666-8.306c0.763-2.807,1.374-5.684,1.815-8.631c0.037-0.311-0.064-0.566-0.241-0.78
	c-0.191-0.21-0.446-0.322-0.812-0.332h-4.62c-0.374,0.009-0.743,0.143-1.028,0.442c-0.287,0.277-0.436,0.63-0.463,1.043v56.68
	h-6.335V13.527c0.011-0.761,0.201-1.495,0.526-2.229c0.338-0.73,0.813-1.373,1.4-1.936c0.488-0.469,1.082-0.828,1.727-1.081
	c0.637-0.29,1.339-0.42,2.086-0.42h9.771c0.915,0,1.654,0.173,2.299,0.487c0.658,0.344,1.175,0.761,1.595,1.306
	c0.437,0.597,0.753,1.298,0.93,2.116c0.173,0.801,0.173,1.638,0.021,2.497c-0.151,0.858-0.402,1.863-0.663,2.993
	c-0.287,1.108-0.609,2.295-0.974,3.553c-0.354,1.26-0.738,2.476-1.112,3.705c-0.405,1.249-0.8,2.396-1.169,3.468
	c-0.394,1.066-0.728,2.003-1.071,2.773c1.083,1.721,2.018,3.48,2.815,5.309c0.826,1.803,1.51,3.663,2.11,5.578
	c1.616-1.065,3.081-2.28,4.396-3.668c1.304-1.383,2.56-2.85,3.713-4.4h-4.46c-0.679-1.069-1.269-2.207-1.769-3.376
	c-0.511-1.196-0.929-2.396-1.223-3.626h6.205c0.271,0.901,0.607,1.882,1.03,2.847c0.427,0.983,0.894,1.873,1.426,2.683
	c0.301-0.427,0.658-0.926,1.081-1.544c0.374-0.618,0.788-1.26,1.181-1.923c0.383-0.673,0.743-1.267,1.017-1.839h-2.396
	c-0.439-0.858-0.859-1.703-1.263-2.54c-0.403-0.847-0.777-1.713-1.124-2.597c-0.239,0.566-0.572,1.133-0.92,1.739
	c-0.369,0.597-0.746,1.16-1.165,1.69h-7.444c1.553-2.049,2.878-4.077,4.014-6.138c1.125-2.062,2.111-4.15,2.93-6.266
	c0.859-2.119,1.624-4.306,2.309-6.54h6.481c-0.121,0.676-0.304,1.358-0.511,2.034c-0.222,0.651-0.442,1.272-0.686,1.847h7.378
	c0.586,0,1.129,0.055,1.715,0.159c0.556,0.134,1.091,0.323,1.563,0.572c0.539,0.225,0.992,0.539,1.396,0.953
	c0.401,0.421,0.733,0.923,1.007,1.511c0.708,1.683,1.409,3.331,2.113,4.922c0.726,1.595,1.467,3.133,2.198,4.628
	c1.028-1.297,1.961-2.601,2.746-3.934c0.813-1.306,1.546-2.71,2.262-4.199c0.131-0.377,0.131-0.721-0.027-1.032
	c-0.156-0.268-0.407-0.444-0.807-0.454h-6.333V8.381h9.761c0.832,0.025,1.541,0.174,2.169,0.512
	c0.632,0.323,1.135,0.786,1.493,1.357c0.406,0.606,0.649,1.289,0.728,2.049c0.053,0.753-0.057,1.51-0.366,2.275
	c-0.421,1.026-0.97,2.162-1.611,3.367c-0.616,1.215-1.337,2.454-2.083,3.724c-0.774,1.254-1.553,2.499-2.387,3.674
	c-0.815,1.194-1.613,2.271-2.411,3.246c1.383,2.442,2.993,4.804,4.81,7.119C242.884,38.017,244.96,40.218,247.269,42.31
	L247.269,42.31z M244.882,50.512h-15.884v14.767c0,0.826-0.162,1.621-0.521,2.403c-0.332,0.747-0.812,1.428-1.411,1.991
	c-0.534,0.496-1.126,0.901-1.808,1.19c-0.646,0.293-1.349,0.442-2.076,0.457h-5.663l-2.243-5.069h5.754
	c0.456-0.021,0.804-0.185,1.062-0.5c0.284-0.343,0.42-0.76,0.42-1.285V50.512h-16.635v-5.146h39.005V50.512L244.882,50.512z
	 M218.56,53.867h-7.135c-0.806,1.893-1.754,3.753-2.837,5.577c-1.1,1.808-2.388,3.574-3.858,5.254
	c-1.467,1.702-3.16,3.321-5.105,4.826h9.257c1.452-1.723,2.796-3.41,3.974-5.057c1.133-1.638,2.213-3.319,3.143-5.044
	C216.926,57.693,217.793,55.849,218.56,53.867L218.56,53.867z M232.118,33.736c-1.238-2.116-2.427-4.29-3.55-6.472
	c-1.108-2.21-2.184-4.415-3.225-6.649c-0.944,2.189-1.963,4.384-3.108,6.558c-1.136,2.171-2.374,4.369-3.676,6.564H232.118
	L232.118,33.736z M220.57,15.691c0.047-0.198,0.015-0.344-0.092-0.472c-0.08-0.134-0.186-0.195-0.358-0.195h-6.247
	c-0.131,0.338-0.271,0.754-0.451,1.181c-0.164,0.417-0.341,0.849-0.524,1.267c-0.173,0.423-0.359,0.794-0.515,1.139h3.486
	c0.161,0.703,0.389,1.46,0.67,2.246c0.293,0.804,0.593,1.52,0.904,2.217c0.679-1.297,1.279-2.573,1.817-3.803
	C219.804,18.039,220.232,16.839,220.57,15.691L220.57,15.691z M317.796,41.944v-3.288c0-1.044-0.119-1.942-0.371-2.704
	c-0.271-0.761-0.646-1.4-1.191-1.924c-0.553-0.542-1.248-0.968-2.087-1.251c-0.853-0.268-1.775-0.419-2.839-0.447V20.532
	c0-0.886-0.112-1.723-0.365-2.494c-0.263-0.77-0.624-1.446-1.101-2.046c-0.481-0.572-1.048-1.017-1.739-1.315
	c-0.701-0.32-1.525-0.479-2.45-0.479H294.84c0.189-0.398,0.396-0.876,0.612-1.439c0.216-0.575,0.365-1.115,0.512-1.617h20.344V6.896
	h-45.33v4.247h18.338c-0.05,0.259-0.143,0.582-0.277,0.959c-0.118,0.412-0.259,0.782-0.415,1.169
	c-0.143,0.384-0.308,0.685-0.435,0.928h-6.472c-1.012,0-1.923,0.128-2.729,0.375c-0.81,0.259-1.501,0.63-2.04,1.117
	c-0.606,0.515-1.059,1.175-1.375,1.963c-0.334,0.807-0.495,1.739-0.495,2.807v12.142c-0.89,0.052-1.713,0.167-2.414,0.375
	c-0.712,0.219-1.354,0.533-1.915,0.971c-0.668,0.493-1.184,1.154-1.546,1.971c-0.359,0.837-0.53,1.838-0.53,3.032v3.292h6.405
	v-3.432c0-0.353,0.058-0.66,0.172-0.964c0.129-0.293,0.288-0.561,0.555-0.731c0.216-0.213,0.537-0.329,0.918-0.329h33.535
	c0.369,0,0.616,0.127,0.859,0.35c0.233,0.229,0.355,0.505,0.355,0.852v3.955H317.796L317.796,41.944z M315.492,48.943h-7.674
	c-1.204-1.516-2.265-3.121-3.211-4.746c-0.936-1.668-1.707-3.367-2.332-5.169h6.586c0.693,1.775,1.63,3.496,2.776,5.124
	C312.799,45.801,314.11,47.37,315.492,48.943L315.492,48.943z M301.031,42.766h-6.646c-0.259-0.496-0.477-1.02-0.711-1.586
	c-0.225-0.541-0.44-1.102-0.623-1.656c-0.214-0.548-0.383-1.026-0.521-1.465h6.636c0.096,0.438,0.229,0.917,0.417,1.465
	c0.167,0.554,0.4,1.115,0.631,1.656C300.461,41.747,300.719,42.27,301.031,42.766L301.031,42.766z M303.729,44.395l-1.97,4.029
	h-12.292c-0.601,0-1.179-0.125-1.701-0.357c-0.531-0.247-1.033-0.573-1.437-0.984c-0.406-0.447-0.729-0.98-0.982-1.537
	c-0.226-0.572-0.335-1.191-0.356-1.809v-5.306h6.192v4.097c0.01,0.572,0.174,1.026,0.53,1.365c0.319,0.337,0.728,0.501,1.181,0.501
	H303.729L303.729,44.395z M283.795,39.469c-0.539,1.428-1.093,2.755-1.709,3.973c-0.607,1.221-1.205,2.305-1.796,3.251
	c-0.575,0.957-1.089,1.715-1.564,2.329h-6.938c1.241-1.45,2.328-2.971,3.272-4.581c0.935-1.596,1.679-3.261,2.262-4.972H283.795
	L283.795,39.469z M319.434,71.237c-1.445-0.438-2.979-0.943-4.69-1.5c-1.696-0.551-3.436-1.157-5.225-1.784
	c-1.78-0.642-3.591-1.315-5.355-1.982c-1.774-0.707-3.465-1.41-5.072-2.119c1.048-0.664,2.107-1.362,3.185-2.077
	c1.068-0.721,2.116-1.462,3.124-2.241c0.986-0.77,1.933-1.567,2.786-2.387c0.563-0.575,0.892-1.188,1.04-1.863
	c0.122-0.682,0.04-1.339-0.229-1.929c-0.249-0.649-0.69-1.206-1.305-1.596c-0.576-0.43-1.321-0.636-2.187-0.652h-16.715
	c0.208-0.201,0.404-0.465,0.647-0.786c0.227-0.328,0.41-0.617,0.471-0.858h-7.823c-1.329,1.644-2.751,3.181-4.285,4.637
	c-1.507,1.449-3.093,2.815-4.746,4.083c-1.614,1.278-3.262,2.472-4.92,3.592h9.7c0.209-0.152,0.459-0.362,0.778-0.609
	c0.314-0.253,0.609-0.527,0.965-0.805c0.326-0.264,0.597-0.534,0.865-0.754c0.545,0.511,1.179,1.048,1.902,1.628
	c0.746,0.582,1.492,1.103,2.219,1.617c0.741,0.505,1.39,0.922,1.922,1.236c-1.616,0.834-3.466,1.689-5.469,2.515
	c-2.025,0.876-4.112,1.696-6.271,2.505c-2.146,0.789-4.247,1.557-6.303,2.285h16.106c0.532-0.251,1.162-0.548,1.872-0.899
	c0.715-0.35,1.495-0.708,2.252-1.084c0.782-0.389,1.521-0.76,2.222-1.11c0.708-0.347,1.342-0.676,1.859-0.936
	c1.345,0.722,2.768,1.392,4.271,2.074c1.489,0.672,2.957,1.27,4.359,1.798H319.434L319.434,71.237z M269.334,6.299
	c-0.104,1.474-0.279,3.072-0.539,4.804c-0.273,1.723-0.6,3.516-0.975,5.353c-0.389,1.844-0.825,3.68-1.275,5.501
	c-0.459,1.851-0.899,3.592-1.395,5.292v44.294h-6.491V38.881h-5.36c2.649-4.972,4.71-10.186,6.248-15.651
	c1.542-5.459,2.608-11.097,3.227-16.931H269.334L269.334,6.299z M304.678,20.246h-22.961v-0.454c0-0.386,0.109-0.716,0.321-0.989
	c0.221-0.284,0.527-0.424,0.94-0.436h20.356c0.395,0.012,0.684,0.152,0.959,0.436c0.243,0.273,0.368,0.603,0.384,0.989V20.246
	L304.678,20.246z M304.678,26.271h-22.961v-2.159h22.961V26.271L304.678,26.271z M304.678,32.552h-22.961v-2.476h22.961V32.552
	L304.678,32.552z M300.875,55.581c-1.319,0.992-2.606,1.918-3.939,2.746c-1.317,0.852-2.666,1.665-4.041,2.475
	c-0.435-0.214-0.982-0.488-1.598-0.868c-0.606-0.38-1.254-0.801-1.921-1.245c-0.693-0.45-1.278-0.883-1.855-1.318h-4.542
	c0.208-0.194,0.425-0.414,0.672-0.651c0.266-0.253,0.501-0.459,0.724-0.675c0.2-0.195,0.377-0.351,0.478-0.463H300.875
	L300.875,55.581z M391.68,40.227h-2.895c-0.498,0-0.893-0.14-1.188-0.399c-0.307-0.277-0.438-0.685-0.46-1.245V20.395
	c0-1.124-0.108-2.128-0.358-3.017c-0.251-0.892-0.654-1.653-1.203-2.274c-0.557-0.673-1.267-1.185-2.146-1.507
	c-0.887-0.35-1.911-0.521-3.148-0.521h-6.335V6.147h-6.412v6.929h-6.202v4.777h6.202c0.026,0.514,0.026,1.111,0.026,1.732
	c0,0.606-0.026,1.24-0.069,1.864c-0.03,0.623-0.062,1.217-0.121,1.78c-0.296-0.335-0.583-0.697-0.864-1.057
	c-0.271-0.371-0.5-0.736-0.686-1.114h-5.983c1.063,1.745,2.158,3.458,3.307,5.154c1.166,1.681,2.356,3.347,3.616,4.99
	c-0.376,2.566-1.141,5.012-2.204,7.313c-1.057,2.313-2.478,4.463-4.257,6.466h8.358c0.448-0.831,0.913-1.684,1.318-2.606
	c0.424-0.91,0.813-1.839,1.174-2.749c0.354-0.91,0.701-1.79,1.012-2.612c0.323,0.35,0.658,0.685,1.017,1.001
	c0.337,0.319,0.683,0.563,0.979,0.706h6.424v1.355c0.015,0.664,0.137,1.299,0.387,1.89c0.271,0.555,0.605,1.05,1.013,1.462
	c0.519,0.523,1.032,0.913,1.639,1.159c0.584,0.271,1.123,0.393,1.644,0.393h4.937L391.68,40.227L391.68,40.227z M360.899,25.899
	l-2.018,4.555h-7.094c-0.756-0.003-1.469-0.128-2.116-0.344c-0.667-0.226-1.221-0.508-1.693-0.844v3.212h9.335v4.234h-9.335v3.589
	h11.115v4.467h-31.096v-4.467h13.131v-3.589H329.94v-4.234h11.188v-4.485h5.656c-0.091-0.319-0.203-0.703-0.301-1.12
	c-0.088-0.433-0.146-0.811-0.146-1.108v-3.818h-4.685c-0.565,1.626-1.335,3.142-2.35,4.561c-0.99,1.44-2.207,2.716-3.619,3.8h-9.545
	c1.155-0.6,2.275-1.325,3.453-2.143c1.145-0.854,2.192-1.77,3.123-2.819c0.947-1.042,1.65-2.18,2.144-3.398h-7.537v-4.244h13.647
	v-3.66h-11.472V9.715h11.472V6.147h6.637v3.568h9.405v4.329h-9.405v3.66h11.79v4.244h-6.629v2.533c0,0.5,0.101,0.858,0.331,1.068
	c0.227,0.244,0.56,0.351,0.987,0.351H360.899L360.899,25.899z M387.669,64.905v-8.731c0-0.792-0.169-1.571-0.482-2.328
	c-0.304-0.768-0.771-1.457-1.315-2.059c-0.567-0.663-1.252-1.144-2.033-1.525c-0.795-0.375-1.633-0.557-2.601-0.557h-22.742
	c0.088-0.479,0.146-1.022,0.183-1.669c0.036-0.633,0.049-1.275,0.049-1.933h-6.705c0,0.494-0.039,1.09-0.094,1.751
	c-0.057,0.635-0.14,1.26-0.219,1.851h-23.931v4.834h23.104c-0.931,2.155-2.191,4.083-3.805,5.775
	c-1.614,1.675-3.489,3.191-5.597,4.504c-2.114,1.296-4.408,2.493-6.856,3.519c-2.462,1.05-4.977,1.991-7.589,2.837h14.403
	c1.742-0.679,3.492-1.544,5.255-2.622c1.736-1.093,3.358-2.354,4.898-3.793c1.55-1.443,2.868-3.02,3.957-4.758
	c1.098-1.708,1.895-3.539,2.363-5.462h20.646c0.678,0,1.191,0.195,1.542,0.588c0.365,0.39,0.558,0.859,0.558,1.434v7.668
	c-0.031,0.639-0.244,1.142-0.637,1.522c-0.417,0.363-0.932,0.558-1.538,0.569h-10.95l2.223,4.854h12.149
	c0.816-0.018,1.569-0.216,2.306-0.588c0.754-0.371,1.371-0.894,1.96-1.586c0.459-0.554,0.825-1.175,1.077-1.868
	C387.523,66.437,387.669,65.694,387.669,64.905L387.669,64.905z M380.58,36.57c-0.899-0.709-1.8-1.461-2.658-2.238
	c-0.871-0.794-1.682-1.58-2.415-2.356c-0.727-0.798-1.359-1.508-1.861-2.192c0.118-1.327,0.215-2.697,0.301-4.095
	c0.063-1.385,0.111-2.755,0.133-4.098c0.031-1.342,0.031-2.582,0-3.738h4.563c0.563,0.009,1.021,0.208,1.38,0.578
	c0.362,0.372,0.527,0.826,0.558,1.361V36.57z"/>
<linearGradient id="SVGID_4_" gradientUnits="userSpaceOnUse" x1="8.5537" y1="35.3462" x2="57.6035" y2="35.3462">
	<stop  offset="0" style="stop-color:#407CCA"/>
	<stop  offset="0.4158" style="stop-color:#407CCA"/>
	<stop  offset="1" style="stop-color:#8EBDE6"/>
</linearGradient>
<path fill="url(#SVGID_4_)" d="M10.279,6.911c2.858,0.055,4.796,0.086,5.81,0.086c1.259,0,3.133-0.031,5.625-0.086l-1.75,33.042
	c-0.026,0.384-0.035,0.792-0.035,1.23c0,3.684,0.475,6.458,1.425,8.312c0.951,1.856,2.349,3.209,4.192,4.053
	c1.842,0.843,3.947,1.269,6.321,1.269c1.512,0,2.94-0.188,4.302-0.573c1.113-0.328,2.128-0.775,3.044-1.354
	c0.74-0.486,1.394-1.063,1.96-1.713c0.668-0.792,1.227-1.706,1.674-2.746c0.466-1.009,0.815-2.155,1.039-3.443
	c0.319-1.937,0.616-5.304,0.892-10.111l0.788-14.248c0.172-4.149,0.313-8.716,0.413-13.716c2.786,0.055,4.862,0.086,6.218,0.086
	l5.406-0.086l-1.151,19.735l-0.741,15.682c-0.223,3.662-0.566,6.391-1.037,8.19c-0.397,1.5-0.95,2.895-1.668,4.173
	c-0.693,1.148-1.521,2.174-2.486,3.072c-1.235,1.175-2.681,2.187-4.334,3.029c-1.855,0.959-3.818,1.654-5.9,2.091
	c-2.864,0.601-5.815,0.898-8.857,0.898c-3.114,0-6.029-0.313-8.748-0.938c-2.33-0.551-4.456-1.394-6.398-2.542
	c-1.939-1.148-3.477-2.429-4.615-3.848c-0.912-1.146-1.646-2.58-2.189-4.299c-0.614-1.909-0.926-4.041-0.926-6.391
	c0-0.816,0.024-1.872,0.076-3.166c0.05-1.3,0.134-2.972,0.262-5.018l0.336-5.775c0.126-1.803,0.264-4.448,0.414-7.943l0.372-8.887
	C10.113,12.552,10.203,9.858,10.279,6.911z"/>
<g>
	<linearGradient id="SVGID_5_" gradientUnits="userSpaceOnUse" x1="46.7798" y1="21.2744" x2="93.5428" y2="21.4693">
		<stop  offset="0" style="stop-color:#407CCA"/>
		<stop  offset="0.4158" style="stop-color:#407CCA"/>
		<stop  offset="1" style="stop-color:#8EBDE6"/>
	</linearGradient>
	<polygon fill="url(#SVGID_5_)" points="92.397,6.911 79.291,6.911 66.707,27.032 71.252,35.931 74.313,35.931 	"/>
</g>
<linearGradient id="SVGID_6_" gradientUnits="userSpaceOnUse" x1="46.7817" y1="20.9102" x2="93.5427" y2="21.105">
	<stop  offset="0" style="stop-color:#407CCA"/>
	<stop  offset="0.4158" style="stop-color:#407CCA"/>
	<stop  offset="1" style="stop-color:#8EBDE6"/>
</linearGradient>
<polygon fill="url(#SVGID_6_)" points="69.291,24.746 59.422,6.911 46.079,6.911 61.546,35.023 62.356,35.023 69.264,24.789 "/>
<linearGradient id="SVGID_7_" gradientUnits="userSpaceOnUse" x1="46.7451" y1="30.0566" x2="93.5059" y2="30.2515">
	<stop  offset="0" style="stop-color:#407CCA"/>
	<stop  offset="0.4158" style="stop-color:#407CCA"/>
	<stop  offset="1" style="stop-color:#8EBDE6"/>
</linearGradient>
<polygon fill="url(#SVGID_7_)" points="67.965,25.866 62.356,34.437 72.598,34.437 72.601,34.427 67.988,25.829 "/>
<g>
	<path fill="#656363" d="M9.526,67.101c0.272,0.006,0.455,0.01,0.548,0.01c0.119,0,0.297-0.004,0.532-0.01l-0.167,3.288
		c-0.005,0.037-0.005,0.079-0.005,0.122c0,0.369,0.046,0.643,0.135,0.825c0.09,0.188,0.222,0.319,0.394,0.408
		c0.173,0.084,0.375,0.125,0.595,0.125c0.142,0,0.279-0.019,0.407-0.058c0.105-0.034,0.199-0.077,0.288-0.135
		c0.069-0.048,0.129-0.106,0.186-0.169c0.059-0.076,0.115-0.174,0.154-0.274c0.043-0.1,0.076-0.216,0.098-0.341
		c0.033-0.195,0.058-0.526,0.083-1.007l0.078-1.418c0.017-0.415,0.026-0.868,0.037-1.364c0.264,0.006,0.458,0.01,0.585,0.01
		l0.508-0.01l-0.104,1.964l-0.072,1.562c-0.019,0.363-0.055,0.631-0.1,0.813c-0.034,0.15-0.086,0.29-0.153,0.417
		c-0.065,0.114-0.144,0.216-0.235,0.308c-0.119,0.112-0.251,0.216-0.41,0.297c-0.175,0.095-0.359,0.166-0.556,0.211
		c-0.268,0.058-0.549,0.088-0.832,0.088c-0.296,0-0.571-0.031-0.824-0.094c-0.219-0.055-0.419-0.14-0.602-0.253
		c-0.181-0.116-0.328-0.241-0.434-0.384c-0.09-0.112-0.154-0.255-0.208-0.426c-0.058-0.191-0.086-0.402-0.086-0.635
		c0-0.083,0.001-0.187,0.006-0.317c0.006-0.129,0.016-0.295,0.026-0.5l0.03-0.572c0.01-0.18,0.024-0.444,0.04-0.792l0.038-0.883
		C9.516,67.661,9.522,67.392,9.526,67.101z"/>
	<path fill="#656363" d="M14.7,72.664c0.047-0.492,0.079-1.036,0.102-1.638l0.084-1.998c0.025-0.721,0.038-1.364,0.038-1.927
		c0.269,0.006,0.5,0.01,0.686,0.01c0.137,0,0.343-0.004,0.608-0.01c0.268,0.536,0.627,1.229,1.091,2.094
		c0.463,0.858,0.838,1.574,1.124,2.138l0.126-3.778c0.003-0.091,0.007-0.243,0.007-0.454c0.216,0.006,0.382,0.01,0.491,0.01
		c0.049,0,0.207-0.004,0.493-0.01l-0.088,1.498l-0.109,2.555l-0.041,1.511c-0.244-0.007-0.446-0.01-0.619-0.01
		c-0.134,0-0.353,0.003-0.656,0.01c-0.114-0.241-0.201-0.424-0.265-0.54c-0.093-0.179-0.298-0.548-0.612-1.108
		c-0.206-0.369-0.46-0.844-0.768-1.417c-0.224-0.427-0.419-0.794-0.578-1.108c-0.018,0.438-0.046,1.255-0.088,2.445
		c-0.015,0.486-0.027,1.063-0.035,1.727c-0.219-0.007-0.379-0.01-0.478-0.01C15.14,72.654,14.969,72.657,14.7,72.664z"/>
	<path fill="#656363" d="M20.331,72.664c0.056-0.936,0.106-1.895,0.136-2.877c0.036-0.981,0.052-1.733,0.052-2.25l-0.007-0.436
		l0.587,0.01c0.034,0,0.208-0.004,0.535-0.01c-0.095,1.428-0.156,3.283-0.185,5.563l-0.511-0.01
		C20.852,72.654,20.651,72.657,20.331,72.664z"/>
	<path fill="#656363" d="M23.732,72.664l-0.129-0.515c-0.019-0.067-0.093-0.326-0.232-0.779l-0.677-2.247l-0.623-2.021
		c0.239,0.006,0.439,0.01,0.6,0.01c0.095,0,0.264-0.004,0.511-0.01l0.109,0.454c0.023,0.091,0.055,0.216,0.099,0.374l0.848,2.988
		c0.053,0.19,0.116,0.443,0.2,0.76l0.188-0.496c0.042-0.122,0.146-0.362,0.291-0.717l1.098-2.68c0.03-0.079,0.064-0.165,0.098-0.253
		c0.031-0.087,0.083-0.228,0.153-0.429c0.253,0.006,0.446,0.01,0.579,0.01c0.079,0,0.262-0.004,0.544-0.01l-0.298,0.654
		l-1.904,4.399l-0.204,0.509c-0.306-0.007-0.503-0.01-0.609-0.01C24.282,72.654,24.07,72.657,23.732,72.664z"/>
	<path fill="#656363" d="M27.5,72.664l0.1-1.559l0.079-1.808l0.043-1.642v-0.554c0.574,0.006,1.172,0.01,1.794,0.01l0.678-0.004
		l1.004-0.006l-0.042,0.88l-0.333-0.019c-0.087-0.006-0.215-0.008-0.374-0.014c-0.159-0.003-0.326-0.003-0.492-0.003
		c-0.361,0-0.596,0-0.707,0.003c-0.1,0-0.262,0.006-0.477,0.014l-0.058,1.444c0.319,0.009,0.641,0.015,0.963,0.015
		c0.225,0,0.603-0.01,1.133-0.027c-0.021,0.252-0.035,0.544-0.05,0.892c-0.624-0.013-0.976-0.016-1.069-0.016
		c-0.272,0-0.614,0.009-1.024,0.029l-0.057,1.521l0.385,0.007c0.11,0,0.366-0.007,0.767-0.013l0.757-0.011l0.508-0.033
		c-0.023,0.317-0.039,0.614-0.048,0.896c-0.609-0.007-1.153-0.01-1.636-0.01l-1.153,0.003L27.5,72.664z"/>
	<path fill="#656363" d="M31.865,72.664c0.07-0.811,0.121-1.742,0.159-2.792c0.035-1.053,0.053-1.974,0.053-2.771
		c0.277,0.006,0.513,0.01,0.698,0.01c0.206,0,0.401-0.004,0.595-0.013c0.193-0.008,0.399-0.012,0.617-0.012
		c0.27,0,0.509,0.015,0.722,0.052c0.216,0.033,0.404,0.115,0.569,0.243c0.164,0.127,0.288,0.284,0.368,0.466
		c0.078,0.182,0.122,0.393,0.122,0.635c0,0.153-0.018,0.295-0.047,0.433c-0.031,0.14-0.075,0.266-0.134,0.387
		c-0.061,0.124-0.129,0.228-0.21,0.319c-0.082,0.091-0.164,0.166-0.245,0.216c-0.079,0.055-0.169,0.098-0.272,0.134
		c-0.102,0.039-0.243,0.089-0.411,0.14l0.237,0.536c0.073,0.173,0.219,0.481,0.432,0.922l0.354,0.722
		c0.02,0.04,0.076,0.161,0.169,0.372c-0.286-0.007-0.471-0.01-0.562-0.01c-0.113,0-0.309,0.003-0.593,0.01l-0.388-1.084
		c-0.068-0.167-0.149-0.363-0.242-0.588l-0.423-0.989c-0.04-0.092-0.099-0.231-0.173-0.415c0.155,0.03,0.296,0.046,0.424,0.046
		c0.201,0,0.385-0.037,0.548-0.114c0.166-0.076,0.293-0.194,0.381-0.35c0.091-0.162,0.135-0.335,0.135-0.521
		c0-0.116-0.021-0.22-0.058-0.32c-0.039-0.097-0.104-0.18-0.197-0.249c-0.091-0.068-0.198-0.11-0.324-0.128
		c-0.122-0.019-0.253-0.027-0.376-0.027c-0.066,0-0.164,0-0.285,0.002c-0.122,0-0.269,0.004-0.448,0.004L33,69.609l-0.066,3.055
		l-0.541-0.01C32.305,72.654,32.132,72.657,31.865,72.664z"/>
	<path fill="#656363" d="M36.256,72.548c-0.016-0.418-0.039-0.756-0.071-1.011c0.456,0.237,0.871,0.359,1.241,0.359
		c0.149,0,0.289-0.027,0.419-0.079c0.126-0.052,0.224-0.127,0.287-0.222c0.059-0.098,0.091-0.208,0.091-0.326
		c0-0.091-0.014-0.173-0.046-0.249c-0.042-0.102-0.117-0.205-0.222-0.314c-0.134-0.146-0.368-0.396-0.71-0.737
		c-0.163-0.164-0.275-0.286-0.34-0.353c-0.137-0.155-0.242-0.297-0.319-0.417c-0.073-0.128-0.124-0.247-0.16-0.371
		c-0.035-0.123-0.049-0.253-0.049-0.39c0-0.256,0.061-0.494,0.185-0.719c0.122-0.225,0.302-0.402,0.546-0.527
		c0.242-0.127,0.548-0.188,0.919-0.188c0.333,0,0.712,0.049,1.122,0.143c0.013,0.282,0.037,0.605,0.071,0.967
		c-0.362-0.161-0.694-0.24-1.003-0.24c-0.224,0-0.411,0.058-0.559,0.176c-0.145,0.122-0.217,0.265-0.217,0.424
		c0,0.042,0.004,0.087,0.016,0.137c0.01,0.045,0.025,0.091,0.048,0.14c0.017,0.042,0.053,0.104,0.108,0.173
		c0.05,0.07,0.123,0.155,0.223,0.252c0.097,0.097,0.188,0.174,0.261,0.234l0.429,0.455c0.107,0.106,0.206,0.209,0.288,0.313
		c0.09,0.098,0.166,0.195,0.225,0.29c0.06,0.091,0.11,0.179,0.144,0.262c0.035,0.085,0.061,0.17,0.076,0.261
		c0.021,0.085,0.03,0.179,0.03,0.277c0,0.228-0.047,0.444-0.139,0.645c-0.089,0.205-0.219,0.369-0.39,0.5
		c-0.169,0.135-0.355,0.22-0.554,0.271c-0.208,0.048-0.418,0.076-0.647,0.076c-0.145,0-0.325-0.015-0.518-0.046
		C36.843,72.685,36.581,72.629,36.256,72.548z"/>
	<path fill="#656363" d="M39.414,72.664c0.242-0.5,0.525-1.119,0.853-1.854l0.916-2.058c0.288-0.637,0.525-1.185,0.714-1.65
		c0.3,0.006,0.518,0.01,0.641,0.01c0.221,0,0.435-0.004,0.65-0.01l0.499,1.666l1.084,3.446l0.151,0.451l-0.525-0.01
		c-0.117,0-0.326,0.003-0.612,0.01c-0.053-0.241-0.143-0.571-0.262-0.978c-0.12-0.412-0.222-0.743-0.306-0.998h-1.837
		c-0.268,0.645-0.537,1.305-0.796,1.976l-0.566-0.01C39.912,72.654,39.71,72.657,39.414,72.664z M41.692,69.841h1.334l-0.548-1.888
		l-0.281,0.686L41.692,69.841z"/>
	<path fill="#656363" d="M45.402,72.664c0.07-0.82,0.125-1.73,0.168-2.732c0.042-1.004,0.064-1.946,0.068-2.831
		c0.241,0.006,0.44,0.01,0.597,0.01c0.11,0,0.277-0.004,0.518-0.01c-0.036,0.491-0.06,1.048-0.089,1.671l-0.07,1.635
		c-0.021,0.466-0.035,0.929-0.048,1.395l0.603,0.003c0.563,0,0.937,0,1.11-0.003c0.179-0.006,0.35-0.012,0.526-0.025
		c-0.024,0.269-0.042,0.563-0.061,0.887c-0.607-0.007-1.132-0.01-1.567-0.01l-1.097,0.003L45.402,72.664z"/>
	<path fill="#656363" d="M51.05,72.664l0.097-1.559l0.072-1.808l0.048-1.642v-0.554c0.576,0.006,1.175,0.01,1.798,0.01l0.671-0.004
		l1.008-0.006l-0.042,0.88l-0.333-0.019c-0.089-0.006-0.218-0.008-0.376-0.014c-0.161-0.003-0.326-0.003-0.493-0.003
		c-0.361,0-0.597,0-0.702,0.003c-0.106,0-0.268,0.006-0.483,0.014l-0.053,1.444c0.315,0.009,0.641,0.015,0.962,0.015
		c0.224,0,0.601-0.01,1.134-0.027c-0.023,0.252-0.035,0.544-0.053,0.892c-0.62-0.013-0.974-0.016-1.065-0.016
		c-0.275,0-0.615,0.009-1.029,0.029l-0.055,1.521l0.383,0.007c0.111,0,0.368-0.007,0.771-0.013l0.755-0.011l0.509-0.033
		c-0.022,0.317-0.041,0.614-0.048,0.896c-0.606-0.007-1.153-0.01-1.64-0.01l-1.149,0.003L51.05,72.664z"/>
	<path fill="#656363" d="M54.769,72.664l0.26-0.372c0.083-0.12,0.223-0.316,0.416-0.61l0.95-1.418l0.298-0.471l-0.43-0.822
		l-1.034-1.87c0.225,0.006,0.446,0.01,0.653,0.01c0.17,0,0.36-0.004,0.58-0.01c0.123,0.32,0.27,0.654,0.43,1.002
		c0.161,0.341,0.286,0.627,0.371,0.846c0.145-0.231,0.347-0.53,0.615-0.904c0.266-0.374,0.474-0.688,0.621-0.944
		c0.189,0.006,0.385,0.01,0.58,0.01c0.126,0,0.32-0.004,0.577-0.01c-0.184,0.283-0.448,0.675-0.789,1.171
		c-0.336,0.498-0.659,0.988-0.963,1.468c0.314,0.627,0.847,1.595,1.592,2.923c-0.269-0.007-0.464-0.01-0.594-0.01
		c-0.198,0-0.411,0.003-0.643,0.01c-0.128-0.269-0.303-0.592-0.519-0.973c-0.221-0.38-0.392-0.69-0.521-0.938
		c-0.128,0.216-0.323,0.509-0.583,0.884c-0.262,0.371-0.491,0.712-0.682,1.026c-0.254-0.007-0.446-0.01-0.581-0.01
		C55.229,72.654,55.023,72.657,54.769,72.664z"/>
	<path fill="#656363" d="M63.895,71.646c-0.054,0.317-0.099,0.639-0.134,0.968c-0.265,0.055-0.508,0.094-0.724,0.115
		c-0.227,0.019-0.416,0.031-0.572,0.031c-0.351,0-0.684-0.058-1-0.17c-0.315-0.116-0.604-0.293-0.86-0.54
		c-0.253-0.249-0.437-0.544-0.553-0.897c-0.113-0.348-0.17-0.733-0.17-1.144c0-0.454,0.068-0.873,0.207-1.255
		c0.137-0.381,0.332-0.707,0.589-0.968c0.26-0.265,0.563-0.459,0.913-0.588c0.356-0.13,0.72-0.194,1.102-0.194
		c0.375,0,0.789,0.049,1.234,0.149c0.009,0.239,0.013,0.413,0.022,0.514l0.024,0.436c-0.264-0.08-0.481-0.137-0.658-0.168
		c-0.172-0.027-0.336-0.044-0.496-0.044c-0.249,0-0.49,0.044-0.72,0.133c-0.229,0.089-0.435,0.232-0.608,0.42
		c-0.173,0.195-0.309,0.426-0.401,0.7c-0.098,0.274-0.143,0.557-0.143,0.855c0,0.353,0.058,0.669,0.174,0.947
		c0.116,0.28,0.301,0.508,0.559,0.682c0.259,0.173,0.579,0.258,0.956,0.258C62.983,71.886,63.408,71.805,63.895,71.646z"/>
	<path fill="#656363" d="M64.644,72.664l0.081-1.462c0.045-0.801,0.075-1.541,0.094-2.223c0.017-0.685,0.03-1.162,0.03-1.429
		l-0.002-0.448c0.269,0.006,0.465,0.01,0.578,0.01c0.087,0,0.264-0.004,0.529-0.01l-0.095,1.839l-0.01,0.423h2.376l0.045-1.102
		c0.01-0.378,0.013-0.627,0.013-0.746v-0.414l0.583,0.01c0.05,0,0.224-0.004,0.519-0.01l-0.111,2.219l-0.049,1.648l-0.012,0.965
		c-0.008,0.398-0.008,0.639-0.008,0.731l-0.543-0.01c-0.068,0-0.262,0.003-0.581,0.01c0.062-0.772,0.097-1.578,0.116-2.428h-2.383
		l-0.05,1.501l-0.014,0.926l-0.57-0.01C65.111,72.654,64.934,72.657,64.644,72.664z"/>
	<path fill="#656363" d="M69.553,72.664c0.242-0.5,0.526-1.119,0.852-1.854l0.916-2.058c0.291-0.637,0.529-1.185,0.716-1.65
		c0.3,0.006,0.511,0.01,0.64,0.01c0.221,0,0.436-0.004,0.65-0.01l0.498,1.666l1.085,3.446l0.15,0.451l-0.525-0.01
		c-0.118,0-0.321,0.003-0.61,0.01c-0.053-0.241-0.14-0.571-0.26-0.978c-0.123-0.412-0.226-0.743-0.31-0.998H71.52
		c-0.269,0.645-0.534,1.305-0.797,1.976l-0.565-0.01C70.051,72.654,69.848,72.657,69.553,72.664z M71.832,69.841h1.336l-0.549-1.888
		l-0.284,0.686L71.832,69.841z"/>
	<path fill="#656363" d="M75.563,72.664c0.048-0.492,0.079-1.036,0.1-1.638l0.085-1.998c0.022-0.721,0.038-1.364,0.038-1.927
		c0.272,0.006,0.498,0.01,0.689,0.01c0.136,0,0.343-0.004,0.612-0.01c0.256,0.536,0.623,1.229,1.084,2.094
		c0.464,0.858,0.839,1.574,1.125,2.138l0.129-3.778c0-0.091,0.001-0.243,0.001-0.454c0.218,0.006,0.383,0.01,0.495,0.01
		c0.043,0,0.207-0.004,0.491-0.01l-0.093,1.498l-0.104,2.555l-0.04,1.511c-0.241-0.007-0.449-0.01-0.621-0.01
		c-0.129,0-0.35,0.003-0.654,0.01c-0.119-0.241-0.204-0.424-0.266-0.54c-0.094-0.179-0.301-0.548-0.612-1.108
		c-0.203-0.369-0.459-0.844-0.765-1.417c-0.227-0.427-0.419-0.794-0.579-1.108c-0.019,0.438-0.048,1.255-0.088,2.445
		c-0.015,0.486-0.032,1.063-0.038,1.727c-0.216-0.007-0.376-0.01-0.475-0.01C76.001,72.654,75.831,72.657,75.563,72.664z"/>
	<path fill="#656363" d="M83.936,69.484c0.321,0.007,0.627,0.01,0.921,0.01c0.384,0,0.698-0.002,0.956-0.01
		c-0.058,0.911-0.102,1.918-0.128,3.033c-0.385,0.088-0.735,0.152-1.047,0.188c-0.312,0.037-0.577,0.055-0.794,0.055
		c-0.412,0-0.786-0.046-1.137-0.152c-0.356-0.097-0.65-0.263-0.891-0.487c-0.24-0.229-0.425-0.524-0.548-0.895
		c-0.131-0.363-0.197-0.752-0.197-1.164c0-0.35,0.052-0.691,0.147-1.013c0.09-0.326,0.233-0.625,0.416-0.895
		c0.184-0.274,0.406-0.5,0.668-0.683c0.258-0.179,0.543-0.303,0.835-0.371c0.292-0.063,0.604-0.097,0.931-0.097
		c0.452,0,0.975,0.07,1.558,0.213c0,0.306,0.015,0.63,0.036,0.968c-0.546-0.214-1.047-0.324-1.489-0.324
		c-0.286,0-0.556,0.05-0.806,0.144c-0.258,0.098-0.484,0.244-0.662,0.441c-0.187,0.201-0.331,0.448-0.422,0.743
		c-0.096,0.295-0.146,0.6-0.146,0.916c0,0.351,0.057,0.662,0.165,0.938c0.111,0.277,0.295,0.49,0.558,0.643
		c0.259,0.152,0.556,0.228,0.896,0.228c0.122,0,0.269-0.015,0.435-0.039c0.168-0.025,0.343-0.073,0.525-0.131l0.058-1.434
		l-0.276-0.003c-0.158,0-0.356,0.003-0.592,0.009C83.923,69.953,83.936,69.676,83.936,69.484z"/>
	<path fill="#656363" d="M86.631,72.664l0.104-1.559l0.07-1.808l0.045-1.642v-0.554c0.577,0.006,1.175,0.01,1.8,0.01l0.667-0.004
		l1.007-0.006l-0.043,0.88l-0.325-0.019c-0.095-0.006-0.217-0.008-0.376-0.014c-0.163-0.003-0.327-0.003-0.493-0.003
		c-0.366,0-0.597,0-0.706,0.003c-0.109,0-0.263,0.006-0.479,0.014l-0.053,1.444c0.315,0.009,0.636,0.015,0.964,0.015
		c0.219,0,0.598-0.01,1.132-0.027c-0.027,0.252-0.036,0.544-0.051,0.892c-0.626-0.013-0.976-0.016-1.07-0.016
		c-0.276,0-0.61,0.009-1.026,0.029l-0.055,1.521l0.386,0.007c0.105,0,0.365-0.007,0.762-0.013l0.758-0.011l0.513-0.033
		c-0.03,0.317-0.041,0.614-0.055,0.896c-0.605-0.007-1.149-0.01-1.636-0.01l-1.148,0.003L86.631,72.664z"/>
</g>
</svg>
